<svg width="42" height="45" viewBox="0 0 42 45" fill="none" xmlns="http://www.w3.org/2000/svg">
<path d="M19.6137 44.8602L3.63012 40.4231L0.0682373 0.472412H39.2072L35.6415 40.4168L19.6137 44.8602Z" fill="#264DE4"/>
<path d="M32.589 37.8731L35.6361 3.73877H19.6378V41.4637L32.589 37.8731Z" fill="#2965F1"/>
<path d="M8.23376 18.5559L8.67292 23.4556H19.6377V18.5559H8.23376Z" fill="#EBEBEB"/>
<path d="M7.35132 8.63855L7.79673 13.5384H19.6377V8.63855H7.35132Z" fill="#EBEBEB"/>
<path d="M19.6378 31.2813L19.6163 31.287L14.1594 29.8136L13.8106 25.9058H8.89197L9.57843 33.5991L19.6153 36.3854L19.6378 36.3792V31.2813Z" fill="#EBEBEB"/>
<path d="M31.0102 18.5558L31.8948 8.63855H19.6207V13.5384H26.525L26.0792 18.5558H19.6207V23.4556H25.6543L25.0855 29.8102L19.6207 31.2852V36.3828L29.6656 33.5989L29.7392 32.7711L30.8906 19.8716L31.0102 18.5558Z" fill="#FCFBFA"/>
</svg>
