<svg width="31" height="45" viewBox="0 0 31 45" fill="none" xmlns="http://www.w3.org/2000/svg">
<g clip-path="url(#clip0)">
<path d="M7.50305 45C11.6431 45 15.0031 41.64 15.0031 37.5V30H7.50305C3.36305 30 0.00305176 33.36 0.00305176 37.5C0.00305176 41.64 3.36305 45 7.50305 45Z" fill="#0ACF83"/>
<path d="M0.00305176 22.5C0.00305176 18.36 3.36305 15 7.50305 15H15.0031V30H7.50305C3.36305 30 0.00305176 26.64 0.00305176 22.5Z" fill="#A259FF"/>
<path d="M0.00305176 7.49999C0.00305176 3.36 3.36305 0 7.50305 0H15.0031V15H7.50305C3.36305 15 0.00305176 11.64 0.00305176 7.49999Z" fill="#F24E1E"/>
<path d="M15.0029 0H22.5029C26.6429 0 30.003 3.36 30.003 7.49999C30.003 11.64 26.6429 15 22.5029 15H15.0029V0Z" fill="#FF7262"/>
<path d="M30.003 22.5C30.003 26.64 26.6429 30 22.5029 30C18.3629 30 15.0029 26.64 15.0029 22.5C15.0029 18.36 18.3629 15 22.5029 15C26.6429 15 30.003 18.36 30.003 22.5Z" fill="#1ABCFE"/>
</g>
<defs>
<clipPath id="clip0">
<rect width="30.006" height="45" fill="white"/>
</clipPath>
</defs>
</svg>
