<svg width="45" height="45" viewBox="0 0 45 45" fill="none" xmlns="http://www.w3.org/2000/svg">
<g clip-path="url(#clip0)">
<path d="M44.1514 20.495L24.5037 0.848752C23.373 -0.282917 21.5377 -0.282917 20.4056 0.848752L16.3258 4.92858L21.5012 10.104C22.704 9.69769 24.083 9.97024 25.0419 10.9291C26.0052 11.8939 26.2757 13.2848 25.8595 14.4915L30.8473 19.4793C32.0541 19.0636 33.4464 19.3327 34.4102 20.2979C35.7572 21.6444 35.7572 23.8268 34.4102 25.1742C33.0628 26.5216 30.8804 26.5216 29.5325 25.1742C28.5193 24.16 28.269 22.6719 28.782 21.4237L24.1304 16.7721L24.1299 29.0131C24.4583 29.176 24.7683 29.3928 25.0419 29.6653C26.3888 31.0118 26.3888 33.1941 25.0419 34.5426C23.6944 35.8895 21.5111 35.8895 20.1656 34.5426C18.8187 33.1941 18.8187 31.0118 20.1656 29.6653C20.4984 29.333 20.8835 29.0817 21.2943 28.9129V16.5578C20.8835 16.3899 20.4989 16.1401 20.1656 15.8053C19.145 14.7862 18.8997 13.2887 19.4225 12.0356L14.3211 6.9332L0.849244 20.4041C-0.282919 21.5368 -0.282919 23.372 0.849244 24.5037L20.4969 44.1504C21.6281 45.2821 23.4629 45.2821 24.5955 44.1504L44.1514 24.595C45.283 23.4629 45.283 21.6266 44.1514 20.495Z" fill="#DE4C36"/>
</g>
<defs>
<clipPath id="clip0">
<rect width="45" height="45" fill="white"/>
</clipPath>
</defs>
</svg>
