<svg width="47" height="45" viewBox="0 0 47 45" fill="none" xmlns="http://www.w3.org/2000/svg">
<g clip-path="url(#clip0)">
<path d="M23.0402 0C10.3171 0 0 10.3152 0 23.0402C0 33.22 6.60172 41.8564 15.7563 44.903C16.9078 45.1162 17.3305 44.4032 17.3305 43.7946C17.3305 43.2452 17.3091 41.4302 17.2992 39.505C10.8894 40.8987 9.53687 36.7865 9.53687 36.7865C8.48879 34.1234 6.97867 33.4153 6.97867 33.4153C4.88824 31.9853 7.13625 32.0147 7.13625 32.0147C9.44988 32.1772 10.6681 34.389 10.6681 34.389C12.7231 37.9113 16.0581 36.893 17.3729 36.3043C17.5796 34.8152 18.1768 33.7987 18.8357 33.2234C13.7181 32.6408 8.33847 30.6652 8.33847 21.8368C8.33847 19.3214 9.23851 17.266 10.7124 15.6525C10.4732 15.0722 9.68453 12.7288 10.9356 9.55519C10.9356 9.55519 12.8703 8.93595 17.2733 11.9169C19.1111 11.4064 21.0821 11.1504 23.0402 11.1416C24.9982 11.1504 26.9708 11.4064 28.8121 11.9169C33.2096 8.93595 35.1417 9.55519 35.1417 9.55519C36.3959 12.7288 35.6068 15.0722 35.3676 15.6525C36.8449 17.266 37.7389 19.3214 37.7389 21.8368C37.7389 30.6862 32.3489 32.6347 27.2184 33.2051C28.0448 33.9201 28.7812 35.3222 28.7812 37.4718C28.7812 40.5546 28.7545 43.0357 28.7545 43.7946C28.7545 44.4077 29.1692 45.1262 30.3371 44.8999C39.4867 41.8499 46.08 33.2165 46.08 23.0402C46.08 10.3152 35.7644 0 23.0402 0ZM8.6293 32.8212C8.57856 32.9357 8.39847 32.97 8.23441 32.8914C8.0673 32.8163 7.97344 32.6602 8.02762 32.5454C8.07722 32.4275 8.25768 32.3947 8.42442 32.4737C8.59191 32.5488 8.68729 32.7064 8.6293 32.8212ZM9.76262 33.8325C9.65274 33.9344 9.43793 33.887 9.29219 33.726C9.14148 33.5654 9.11325 33.3506 9.22466 33.2472C9.33797 33.1453 9.54629 33.193 9.69738 33.3537C9.84809 33.5162 9.87746 33.7295 9.76262 33.8325ZM10.5401 35.1263C10.399 35.2244 10.1681 35.1324 10.0254 34.9276C9.88426 34.7227 9.88426 34.477 10.0285 34.3785C10.1716 34.2801 10.399 34.3686 10.5436 34.572C10.6843 34.7803 10.6843 35.026 10.5401 35.1263ZM11.855 36.6248C11.7288 36.7641 11.4598 36.7267 11.2629 36.5367C11.0614 36.3509 11.0054 36.0872 11.132 35.948C11.2598 35.8083 11.5304 35.8476 11.7288 36.0361C11.9287 36.2215 11.9897 36.4871 11.855 36.6248ZM13.5545 37.1307C13.4987 37.3111 13.2397 37.3932 12.9787 37.3165C12.7181 37.2375 12.5476 37.0261 12.6002 36.8438C12.6544 36.6622 12.9146 36.5767 13.1775 36.6587C13.4377 36.7373 13.6086 36.9472 13.5545 37.1307ZM15.4884 37.3453C15.4949 37.5353 15.2736 37.6928 14.9997 37.6963C14.7242 37.7024 14.5014 37.5486 14.4984 37.3617C14.4984 37.1697 14.7147 37.0137 14.9902 37.0091C15.2641 37.0038 15.4884 37.1564 15.4884 37.3453ZM17.3884 37.2724C17.4212 37.4579 17.2308 37.6482 16.9588 37.699C16.6913 37.7478 16.4437 37.6334 16.4097 37.4495C16.3766 37.2595 16.5704 37.0691 16.8374 37.0198C17.1099 36.9725 17.3537 37.0839 17.3884 37.2724Z" fill="#161614"/>
</g>
<defs>
<clipPath id="clip0">
<rect width="46.08" height="45" fill="white"/>
</clipPath>
</defs>
</svg>
