<svg width="51" height="45" viewBox="0 0 51 45" fill="none" xmlns="http://www.w3.org/2000/svg">
<path d="M0.147339 22.451C0.147339 26.2103 3.81826 29.7198 9.60577 31.6979C8.45005 37.5162 9.39864 42.2057 12.567 44.0329C15.8238 45.911 20.6756 44.611 25.2806 40.5857C29.7694 44.4485 34.3062 45.9687 37.4716 44.1362C40.7252 42.2527 41.7149 37.2452 40.5272 31.2453C46.5552 29.2523 49.9271 26.2598 49.9271 22.451C49.9271 18.7788 46.2493 15.6019 40.5399 13.6364C41.8185 7.38858 40.7351 2.81291 37.4356 0.910152C34.2545 -0.92422 29.665 0.674622 25.1102 4.6386C20.3717 0.431151 15.8275 -0.853436 12.5312 1.05486C9.35319 2.89445 8.44631 7.66914 9.60577 13.5951C4.01368 15.5448 0.147339 18.7935 0.147339 22.451Z" fill="#FCFBFA"/>
<path d="M39.3311 15.5884C38.8725 15.4305 38.3973 15.2812 37.908 15.1399C37.9884 14.8117 38.0622 14.4877 38.1278 14.1693C39.2051 8.94001 38.5008 4.72728 36.0956 3.34027C33.7893 2.01031 30.0175 3.397 26.2083 6.7121C25.8419 7.03088 25.4746 7.36839 25.1074 7.72211C24.8628 7.48808 24.6185 7.26192 24.3749 7.0456C20.3827 3.50087 16.3811 2.00708 13.9782 3.3981C11.6741 4.73192 10.9918 8.69229 11.9615 13.6481C12.0552 14.1268 12.1646 14.6156 12.2884 15.1126C11.7221 15.2734 11.1753 15.4448 10.6522 15.6271C5.97171 17.2589 2.98254 19.8164 2.98254 22.4692C2.98254 25.2089 6.19141 27.957 11.0665 29.6233C11.4512 29.7548 11.8504 29.8791 12.2618 29.9971C12.1283 30.5347 12.0121 31.0614 11.9146 31.5752C10.99 36.445 11.7121 40.3118 14.01 41.6372C16.3836 43.006 20.3671 41.5991 24.246 38.2084C24.5526 37.9404 24.8603 37.6562 25.1685 37.3582C25.568 37.743 25.9669 38.1071 26.3637 38.4486C30.1209 41.6818 33.8317 42.9873 36.1275 41.6582C38.4987 40.2856 39.2693 36.1317 38.2689 31.0778C38.1925 30.6918 38.1035 30.2975 38.0037 29.8962C38.2834 29.8135 38.5581 29.7281 38.8258 29.6393C43.8939 27.9601 47.1914 25.2455 47.1914 22.4692C47.1914 19.8068 44.1059 17.2321 39.3311 15.5884Z" fill="#53C1DE"/>
<path d="M38.2319 27.8466C37.9902 27.9266 37.7421 28.0039 37.4894 28.0789C36.9299 26.3077 36.1748 24.4242 35.2507 22.4782C36.1325 20.5786 36.8584 18.7192 37.4023 16.9595C37.8545 17.0903 38.2935 17.2284 38.7164 17.374C42.8074 18.7824 45.3029 20.8646 45.3029 22.469C45.3029 24.1781 42.6079 26.3966 38.2319 27.8466ZM36.4162 31.4445C36.8586 33.6792 36.9218 35.6997 36.6287 37.2792C36.3654 38.6985 35.8359 39.6447 35.1812 40.0237C33.788 40.8301 30.8086 39.7819 27.5954 37.0168C27.227 36.6999 26.856 36.3614 26.4838 36.0032C27.7295 34.6408 28.9744 33.057 30.1895 31.298C32.3267 31.1084 34.3458 30.7983 36.1769 30.3751C36.2671 30.7388 36.3472 31.0956 36.4162 31.4445ZM18.0544 39.8843C16.6932 40.3651 15.6091 40.3788 14.9537 40.001C13.5592 39.1967 12.9795 36.092 13.7703 31.9273C13.8609 31.4504 13.9687 30.9604 14.0929 30.4597C15.9039 30.8601 17.9083 31.1483 20.0505 31.322C21.2738 33.0432 22.5547 34.6253 23.8456 36.0105C23.5636 36.2828 23.2826 36.542 23.0033 36.7863C21.288 38.2856 19.5692 39.3493 18.0544 39.8843ZM11.6773 27.8361C9.52167 27.0993 7.74143 26.1417 6.52117 25.0968C5.42469 24.1577 4.87109 23.2255 4.87109 22.469C4.87109 20.8592 7.2711 18.806 11.2739 17.4104C11.7596 17.241 12.268 17.0814 12.7956 16.9315C13.3488 18.731 14.0745 20.6125 14.9503 22.515C14.0632 24.4458 13.3272 26.3572 12.7685 28.1778C12.3924 28.0696 12.028 27.9559 11.6773 27.8361ZM13.815 13.2853C12.9842 9.03928 13.5359 5.83623 14.9244 5.03248C16.4034 4.17624 19.6739 5.39706 23.1209 8.45775C23.3413 8.65338 23.5625 8.85813 23.7843 9.06997C22.4998 10.4492 21.2306 12.0194 20.0182 13.7305C17.939 13.9232 15.9488 14.2327 14.1189 14.6473C14.0038 14.1845 13.9019 13.7298 13.815 13.2853ZM32.8847 17.9941C32.4472 17.2385 31.9982 16.5008 31.5403 15.7832C32.9509 15.9615 34.3023 16.1982 35.5714 16.4879C35.1904 17.709 34.7155 18.9858 34.1565 20.2946C33.7555 19.5333 33.3313 18.7657 32.8847 17.9941ZM25.1081 10.4197C25.9792 11.3634 26.8516 12.4171 27.7096 13.5603C26.845 13.5195 25.9696 13.4982 25.087 13.4982C24.2128 13.4982 23.3439 13.519 22.4845 13.5591C23.3435 12.4265 24.2234 11.3743 25.1081 10.4197ZM17.2817 18.0072C16.8447 18.7649 16.4285 19.5283 16.0338 20.2932C15.4838 18.9889 15.0133 17.7063 14.629 16.4679C15.8903 16.1856 17.2354 15.9548 18.6369 15.7799C18.1727 16.5041 17.7199 17.2472 17.2817 18.007V18.0072ZM18.6773 29.2929C17.2292 29.1313 15.8639 28.9124 14.6029 28.638C14.9934 27.3774 15.4743 26.0674 16.0359 24.735C16.4316 25.4994 16.8495 26.2631 17.2892 27.0225H17.2893C17.7371 27.7961 18.2011 28.5539 18.6773 29.2929ZM25.1604 34.6515C24.2652 33.6858 23.3724 32.6174 22.5004 31.4683C23.3469 31.5015 24.2099 31.5185 25.087 31.5185C25.9881 31.5185 26.8789 31.4982 27.7557 31.4592C26.8948 32.629 26.0256 33.699 25.1604 34.6515ZM34.1745 24.6671C34.7654 26.0139 35.2635 27.317 35.659 28.5561C34.3772 28.8485 32.9933 29.0841 31.5351 29.2591C31.9941 28.5318 32.4471 27.7814 32.8922 27.0095C33.3426 26.2286 33.7702 25.4465 34.1745 24.6671ZM31.2563 26.066C30.5653 27.2642 29.8558 28.4081 29.1355 29.4878C27.8237 29.5816 26.4684 29.6299 25.087 29.6299C23.7113 29.6299 22.373 29.5872 21.0844 29.5036C20.3351 28.4097 19.6102 27.2624 18.9235 26.0763H18.9237C18.2388 24.8934 17.6085 23.7006 17.0374 22.5144C17.6084 21.3254 18.237 20.1312 18.9179 18.9504L18.9178 18.9507C19.6005 17.7668 20.319 16.6251 21.0614 15.5381C22.3762 15.4387 23.7244 15.3868 25.0869 15.3868H25.087C26.4557 15.3868 27.8056 15.4391 29.12 15.5393C29.8511 16.6184 30.5647 17.7564 31.2501 18.9404C31.9433 20.1378 32.5801 21.3241 33.1559 22.4875C32.5818 23.671 31.9465 24.8692 31.2563 26.066ZM35.1523 4.9763C36.6327 5.83002 37.2084 9.27307 36.2783 13.788C36.2189 14.0761 36.1521 14.3695 36.0796 14.6669C34.2454 14.2437 32.2537 13.9288 30.1685 13.7331C28.9538 12.0033 27.6949 10.4306 26.4314 9.0691C26.7711 8.7423 27.1103 8.43068 27.4482 8.13661C30.7119 5.29625 33.7624 4.17483 35.1523 4.9763Z" fill="#FCFBFA"/>
<path d="M25.0862 18.5216C27.2665 18.5216 29.0339 20.289 29.0339 22.4693C29.0339 24.6495 27.2665 26.417 25.0862 26.417C22.906 26.417 21.1385 24.6495 21.1385 22.4693C21.1385 20.289 22.906 18.5216 25.0862 18.5216Z" fill="#53C1DE"/>
</svg>
