<svg width="45" height="45" viewBox="0 0 45 45" fill="none" xmlns="http://www.w3.org/2000/svg">
<path d="M0 0H45V45H0V0Z" fill="#F7DF1E"/>
<path d="M11.8326 37.6052L15.2763 35.5212C15.9407 36.6991 16.545 37.6957 17.9947 37.6957C19.3842 37.6957 20.2603 37.1522 20.2603 35.0379V20.6593H24.4892V35.0977C24.4892 39.4777 21.9217 41.4713 18.1759 41.4713C14.793 41.4713 12.8293 39.7192 11.8325 37.6049" fill="#1E0E04"/>
<path d="M26.7854 37.1519L30.2287 35.1583C31.1351 36.6386 32.3132 37.7259 34.3973 37.7259C36.1495 37.7259 37.2669 36.8499 37.2669 35.6416C37.2669 34.1916 36.1191 33.6781 34.1858 32.8326L33.1289 32.3791C30.0778 31.0805 28.0539 29.4494 28.0539 26.0057C28.0539 22.834 30.4704 20.4174 34.2464 20.4174C36.9348 20.4174 38.868 21.3539 40.2574 23.8006L36.9648 25.915C36.2398 24.6162 35.4547 24.1028 34.2465 24.1028C33.008 24.1028 32.2225 24.8881 32.2225 25.915C32.2225 27.1837 33.008 27.6974 34.8202 28.4828L35.8773 28.9359C39.472 30.4765 41.4959 32.0471 41.4959 35.5811C41.4959 39.3874 38.5055 41.4715 34.488 41.4715C30.5612 41.4715 28.0238 39.5988 26.7855 37.1519" fill="#1E0E04"/>
</svg>
