<svg width="45" height="45" viewBox="0 0 45 45" fill="none" xmlns="http://www.w3.org/2000/svg">
<path d="M44.7498 24.966L39.2108 22.2902L44.4578 19.8362C44.8649 19.6453 45.1038 19.1418 44.8224 18.6725L44.2771 18.0413C43.9252 17.6563 43.5431 17.3757 43.0788 17.5584L39.1803 19.0279C39.0952 19.06 39.002 19.0639 38.9144 19.0392L37.4053 18.6117C37.3503 18.5961 37.2922 18.5951 37.2367 18.6088C37.1812 18.6225 37.1302 18.6504 37.0887 18.6897L35.4745 20.222C35.1211 18.1906 34.2936 16.2712 33.0591 14.6197L35.419 14.6012C35.4689 14.6008 35.5178 14.5871 35.5607 14.5615C35.6036 14.5359 35.6389 14.4994 35.663 14.4557L36.4983 12.9404C36.5417 12.8616 36.6104 12.7996 36.6932 12.7645L40.5548 11.1179C40.7919 11.0169 40.9378 10.5242 40.8923 10.2046L40.7666 9.05146C40.6639 8.72029 40.1988 8.42884 39.9766 8.51093L34.1679 10.5356L36.143 5.08988C36.2958 4.66713 36.1087 4.14242 35.5779 4.00936L34.7459 3.94871C34.2249 3.92551 33.7563 3.99705 33.5571 4.45461L31.8395 8.25025C31.802 8.33314 31.7389 8.40182 31.6595 8.44624L30.2902 9.21089C30.2403 9.23879 30.1985 9.2792 30.1689 9.32814C30.1393 9.37708 30.123 9.43287 30.1215 9.49003L30.0634 11.7158C28.377 10.5288 26.434 9.7568 24.3927 9.46279L26.0497 7.77986C26.0847 7.74428 26.1096 7.7 26.1219 7.6516C26.1342 7.60319 26.1333 7.55238 26.1194 7.50441L25.6387 5.8424C25.6137 5.7559 25.6183 5.66352 25.6519 5.57996L27.2181 1.68518C27.3146 1.44612 27.0694 0.99436 26.811 0.80065L25.9067 0.0739711C25.5998 -0.0873959 25.0648 0.0351235 24.9658 0.250279L22.29 5.78949L19.836 0.542252C19.6451 0.135143 19.1416 -0.103568 18.6723 0.177682L18.0411 0.72313C17.6561 1.07504 17.3756 1.45702 17.5584 1.92143L19.0277 5.81972C19.0599 5.90498 19.0638 5.99814 19.039 6.08568L18.6116 7.59494C18.596 7.64991 18.595 7.70801 18.6087 7.76349C18.6224 7.81898 18.6503 7.86994 18.6897 7.91134L20.2218 9.52554C18.1905 9.87893 16.2712 10.7064 14.6197 11.9408L14.601 9.58126C14.6007 9.53129 14.587 9.48232 14.5615 9.43937C14.5359 9.39643 14.4994 9.36107 14.4556 9.33693L12.9404 8.50179C12.8616 8.45835 12.7996 8.38979 12.7643 8.30703L11.1179 4.44512C11.0168 4.20817 10.5241 4.06227 10.2044 4.10797L9.05125 4.23348C8.72026 4.33631 8.42864 4.80125 8.51073 5.02344L10.5356 10.8323L5.08985 8.85722C4.66692 8.70429 4.14221 8.8915 4.00914 9.42236L3.9485 10.2543C3.9253 10.7752 3.99684 11.244 4.4544 11.443L8.25004 13.1603C8.333 13.1979 8.4017 13.2611 8.44604 13.3407L9.21104 14.71C9.26764 14.8115 9.37381 14.8756 9.49 14.8786L11.7154 14.9366C10.5285 16.623 9.75668 18.566 9.46276 20.6071L7.77965 18.9504C7.74407 18.9154 7.6998 18.8904 7.65139 18.8782C7.60298 18.8659 7.55218 18.8667 7.5042 18.8806L5.84219 19.3614C5.75576 19.3865 5.66341 19.3818 5.57993 19.3482L1.68514 17.7818C1.4459 17.6856 0.99432 17.9309 0.800609 18.1891L0.0739291 19.0935C-0.0874381 19.4002 0.0352573 19.9351 0.250414 20.0343L5.78928 22.71L0.54221 25.1639C0.135101 25.355 -0.10361 25.8582 0.17764 26.3276L0.723089 26.959C1.075 27.3438 1.45715 27.6245 1.92139 27.4418L5.81987 25.9723C5.90505 25.9403 5.99824 25.9363 6.08582 25.9611L7.59491 26.3886C7.7067 26.4202 7.82694 26.3903 7.91131 26.3105L9.52569 24.7782C9.87906 26.8096 10.7065 28.7289 11.9409 30.3804L9.58123 30.399C9.53131 30.3994 9.48239 30.4131 9.43951 30.4387C9.39664 30.4643 9.36134 30.5008 9.33725 30.5446L8.50194 32.0596C8.45834 32.1385 8.38968 32.2005 8.30682 32.2359L4.44543 33.8823C4.20813 33.9834 4.06223 34.4761 4.10793 34.7956L4.23344 35.9488C4.33627 36.2799 4.80121 36.5714 5.02358 36.4893L10.8323 34.4646L8.85719 39.9103C8.70426 40.3331 8.89147 40.8578 9.42233 40.9909L10.2543 41.0515C10.7751 41.0747 11.2439 41.0032 11.4429 40.5456L13.1603 36.75C13.198 36.6671 13.2612 36.5984 13.3407 36.554L14.71 35.7892C14.8114 35.7324 14.8756 35.6264 14.8786 35.5102L14.9366 33.2845C16.623 34.4715 18.566 35.2435 20.6073 35.5374L18.9504 37.2204C18.9154 37.256 18.8905 37.3003 18.8783 37.3487C18.8661 37.3971 18.8669 37.4479 18.8808 37.4958L19.3615 39.1578C19.3865 39.2443 19.3818 39.3367 19.3482 39.4203L17.7818 43.315C17.6856 43.5541 17.9308 44.0059 18.1892 44.1996L19.0933 44.9261C19.4 45.0874 19.9349 44.9648 20.0342 44.7498L22.7096 39.2106L25.1641 44.4576C25.355 44.8649 25.8582 45.1036 26.3277 44.8224L26.9588 44.2769C27.3436 43.925 27.6245 43.5429 27.4417 43.0786L25.9721 39.1803C25.9401 39.0951 25.9362 39.0019 25.9611 38.9144L26.3882 37.4051C26.4199 37.2933 26.3903 37.1731 26.3103 37.0887L24.7782 35.4743C26.8096 35.121 28.729 34.2935 30.3804 33.0589L30.399 35.419C30.3997 35.5206 30.4553 35.6139 30.5444 35.6629L32.0596 36.4983C32.1384 36.5417 32.2002 36.6102 32.2357 36.693L33.8821 40.5548C33.9832 40.7919 34.4759 40.9378 34.7957 40.8921L35.9486 40.7666C36.2798 40.6637 36.5712 40.1988 36.4893 39.9766L34.4643 34.1678L39.91 36.1428C40.3331 36.2958 40.8578 36.1086 40.9909 35.5777L41.0515 34.7457C41.0747 34.2249 41.003 33.7561 40.5456 33.5571L36.75 31.8395C36.667 31.8019 36.5983 31.7388 36.5538 31.6594L35.789 30.29C35.7611 30.2401 35.7207 30.1983 35.6718 30.1687C35.6229 30.1392 35.5672 30.1228 35.51 30.1213L33.2843 30.0633C34.4713 28.3769 35.2432 26.4341 35.5373 24.3929L37.2204 26.0497C37.2559 26.0847 37.3002 26.1096 37.3486 26.1218C37.3969 26.1341 37.4477 26.1333 37.4957 26.1194L39.1578 25.6387C39.2443 25.6136 39.3366 25.6182 39.4201 25.6519L43.3149 27.2181C43.554 27.3144 44.0057 27.0692 44.1994 26.811L44.9259 25.9067C45.0875 25.6 44.9648 25.0651 44.7498 24.966ZM31.9457 21.0309H29.1446C28.9442 20.1209 28.558 19.2621 28.0103 18.5083L29.9736 16.5448C30.9879 17.8163 31.6864 19.3508 31.9457 21.0309ZM26.159 16.7635C25.3743 16.2609 24.4941 15.926 23.5738 15.7798V13.0037C25.2248 13.1878 26.7988 13.8016 28.1386 14.7839L26.159 16.7635ZM25.818 22.5001C25.818 24.3325 24.3326 25.818 22.5001 25.818C20.6678 25.818 19.1822 24.3325 19.1822 22.5001C19.1822 20.6678 20.6676 19.1822 22.5001 19.1822C24.3326 19.1822 25.818 20.6676 25.818 22.5001ZM21.0309 13.0545V15.8556C20.121 16.0561 19.2623 16.4423 18.5085 16.9899L16.545 15.0264C17.8164 14.0122 19.3505 13.3138 21.0309 13.0545ZM16.7635 18.8412C16.261 19.626 15.9262 20.5061 15.78 21.4264H13.0037C13.188 19.7754 13.8017 18.2014 14.7838 16.8614L16.7635 18.8412ZM13.0545 23.9693H15.8557C16.0562 24.8792 16.4424 25.738 16.9901 26.4917L15.0266 28.4552C14.0123 27.184 13.3138 25.6496 13.0545 23.9693ZM18.8412 28.2367C19.626 28.7393 20.5061 29.0742 21.4264 29.2204V31.9965C19.7754 31.8124 18.2015 31.1986 16.8617 30.2164L18.8412 28.2367ZM23.9695 31.9457V29.1446C24.8793 28.944 25.7381 28.5579 26.4919 28.0103L28.4552 29.9736C27.184 30.9879 25.6498 31.6864 23.9695 31.9457ZM28.2369 26.159C28.7393 25.3742 29.0741 24.4941 29.2204 23.5738H31.9967C31.8124 25.2248 31.1986 26.7987 30.2165 28.1386L28.2369 26.159Z" fill="#E16426"/>
</svg>
