<svg width="48" height="45" viewBox="0 0 48 45" fill="none" xmlns="http://www.w3.org/2000/svg">
<path d="M32.8437 31.4276C34.593 31.2467 35.92 29.7386 35.8597 27.929C35.7994 26.1193 34.2914 24.6716 32.4818 24.6716H32.3612C30.4913 24.7319 29.0436 26.3003 29.1039 28.1702C29.1643 29.0751 29.5262 29.8592 30.069 30.4021C28.0182 34.4437 24.8816 37.3995 20.1767 39.8727C16.9797 41.5617 13.6621 42.1649 10.3446 41.7426C7.63019 41.3807 5.51901 40.1743 4.19198 38.1836C2.26175 35.2279 2.0808 32.0308 3.70942 28.8338C4.85549 26.5416 6.66508 24.8525 7.81115 24.008C7.56987 23.2239 7.20796 21.8968 7.027 20.9316C-1.71933 27.2654 -0.814541 35.8311 1.83952 39.8727C3.83006 42.8887 7.87147 44.7587 12.3351 44.7587C13.5415 44.7587 14.7479 44.6381 15.9543 44.3365C23.6752 42.8284 29.5262 38.244 32.8437 31.4276ZM43.46 23.9477C38.8757 18.5791 32.1199 15.6233 24.399 15.6233H23.4339C22.891 14.5375 21.745 13.8137 20.4782 13.8137H20.3576C18.4877 13.874 17.04 15.4424 17.1004 17.3123C17.1607 19.122 18.6687 20.5697 20.4782 20.5697H20.5989C21.9259 20.5094 23.072 19.6649 23.5545 18.5188H24.6403C29.2246 18.5188 33.5676 19.8458 37.4884 22.4397C40.5043 24.4303 42.6758 27.0241 43.8822 30.1609C44.9077 32.6944 44.8473 35.1676 43.7616 37.2788C42.0726 40.4759 39.2376 42.2252 35.4978 42.2252C33.085 42.2252 30.7929 41.5013 29.5865 40.9584C28.923 41.5617 27.7166 42.5268 26.8721 43.13C29.4659 44.3365 32.1199 45 34.6533 45C40.444 45 44.7267 41.8029 46.3553 38.6059C48.1046 35.1072 47.9839 29.0751 43.46 23.9477ZM12.8177 32.4531C12.878 34.2627 14.386 35.7105 16.1956 35.7105H16.3162C18.1861 35.6501 19.6338 34.0818 19.5735 32.2118C19.5131 30.4021 18.0051 28.9544 16.1956 28.9544H16.0749C15.9543 28.9544 15.7733 28.9544 15.6527 29.0147C13.1796 24.9129 12.1542 20.4491 12.5161 15.6233C12.7574 12.004 13.9637 8.86729 16.0749 6.27346C17.8242 4.04155 21.2021 2.95576 23.4942 2.89544C29.8881 2.7748 32.6025 10.7373 32.7834 13.9343C33.5676 14.1153 34.8946 14.5375 35.7994 14.8391C35.0756 5.06702 29.0436 0 23.2529 0C17.8242 0 12.8177 3.92091 10.8271 9.7118C8.05243 17.433 9.86201 24.8525 13.2399 30.7038C12.9383 31.126 12.7573 31.7895 12.8177 32.4531Z" fill="#1E0E04"/>
</svg>
