<svg width="46" height="46" viewBox="0 0 46 46" fill="none" xmlns="http://www.w3.org/2000/svg">
<g clip-path="url(#clip0)">
<path d="M38.4106 38.4659H31.7469V28.024C31.7469 25.534 31.6963 22.3297 28.2744 22.3297C24.8 22.3297 24.2694 25.039 24.2694 27.8403V38.4659H17.6056V16.9934H24.0069V19.9203H24.0931C24.9875 18.2328 27.1625 16.4515 30.4119 16.4515C37.1638 16.4515 38.4125 20.8953 38.4125 26.6797V38.4659H38.4106ZM10.0794 14.0553C7.93439 14.0553 6.21126 12.319 6.21126 10.1834C6.21126 8.04966 7.93626 6.31528 10.0794 6.31528C12.2169 6.31528 13.9494 8.04966 13.9494 10.1834C13.9494 12.319 12.215 14.0553 10.0794 14.0553ZM13.4206 38.4659H6.73813V16.9934H13.4206V38.4659ZM41.7444 0.118408H3.39313C1.55751 0.118408 0.0725098 1.56966 0.0725098 3.36028V41.8765C0.0725098 43.669 1.55751 45.1184 3.39313 45.1184H41.7388C43.5725 45.1184 45.0725 43.669 45.0725 41.8765V3.36028C45.0725 1.56966 43.5725 0.118408 41.7388 0.118408H41.7444Z" fill="#1E0E04"/>
</g>
<defs>
<clipPath id="clip0">
<rect width="45" height="45" fill="white" transform="translate(0.0725098 0.118408)"/>
</clipPath>
</defs>
</svg>
