<svg width="74" height="45" viewBox="0 0 74 45" fill="none" xmlns="http://www.w3.org/2000/svg">
<g clip-path="url(#clip0)">
<path d="M36.2738 44.8702C36.0253 44.8702 35.7935 44.8039 35.5781 44.688L33.3752 43.3795C33.0439 43.1973 33.2096 43.131 33.3089 43.0979C33.7562 42.9488 33.839 42.9157 34.3027 42.6507C34.3524 42.6176 34.4187 42.6341 34.4684 42.6673L36.1578 43.6776C36.2241 43.7108 36.3069 43.7108 36.3566 43.6776L42.9654 39.8515C43.0316 39.8184 43.0648 39.7521 43.0648 39.6693V32.0336C43.0648 31.9507 43.0316 31.8845 42.9654 31.8514L36.3566 28.0418C36.2904 28.0087 36.2075 28.0087 36.1578 28.0418L29.5491 31.8514C29.4828 31.8845 29.4497 31.9673 29.4497 32.0336V39.6693C29.4497 39.7355 29.4828 39.8184 29.5491 39.8515L31.3545 40.895C32.3317 41.3919 32.9446 40.8122 32.9446 40.2324V32.6961C32.9446 32.5967 33.0274 32.4973 33.1433 32.4973H33.988C34.0874 32.4973 34.1868 32.5802 34.1868 32.6961V40.2324C34.1868 41.5409 33.4746 42.3029 32.2323 42.3029C31.8514 42.3029 31.5532 42.3029 30.7085 41.8888L28.9693 40.895C28.5387 40.6465 28.2737 40.1827 28.2737 39.6858V32.0501C28.2737 31.5532 28.5387 31.0895 28.9693 30.841L35.5781 27.0149C35.9922 26.783 36.5554 26.783 36.9695 27.0149L43.5782 30.841C44.0089 31.0895 44.2739 31.5532 44.2739 32.0501V39.6858C44.2739 40.1827 44.0089 40.6465 43.5782 40.895L36.9695 44.7211C36.7541 44.8205 36.5057 44.8702 36.2738 44.8702ZM38.3111 39.6196C35.4125 39.6196 34.8162 38.2945 34.8162 37.1682C34.8162 37.0688 34.899 36.9695 35.015 36.9695H35.8763C35.9756 36.9695 36.0585 37.0357 36.0585 37.1351C36.191 38.0129 36.5719 38.4436 38.3276 38.4436C39.719 38.4436 40.3153 38.1289 40.3153 37.3835C40.3153 36.9529 40.1496 36.6382 37.9798 36.4229C36.1744 36.2407 35.0481 35.8431 35.0481 34.4021C35.0481 33.0605 36.1744 32.2655 38.0626 32.2655C40.1827 32.2655 41.2262 32.9942 41.3587 34.5843C41.3587 34.634 41.3422 34.6837 41.3091 34.7334C41.2759 34.7665 41.2262 34.7996 41.1765 34.7996H40.3153C40.2324 34.7996 40.1496 34.7334 40.1331 34.6506C39.9343 33.7396 39.4208 33.4415 38.0626 33.4415C36.5388 33.4415 36.3566 33.9715 36.3566 34.369C36.3566 34.8493 36.5719 34.9984 38.6258 35.2634C40.6631 35.5284 41.6238 35.9094 41.6238 37.3338C41.6072 38.7914 40.4146 39.6196 38.3111 39.6196Z" fill="#1E0E04"/>
<path d="M15.7683 15.0064C15.7683 14.7083 15.6027 14.4267 15.3376 14.2776L8.31477 10.2362C8.19883 10.1699 8.06632 10.1368 7.93382 10.1202H7.86756C7.73505 10.1202 7.60255 10.1699 7.4866 10.2362L0.463729 14.2776C0.198715 14.4267 0.0330811 14.7083 0.0330811 15.0064L0.0496444 25.872C0.0496444 26.0211 0.132461 26.1702 0.264968 26.2364C0.397476 26.3192 0.563109 26.3192 0.679053 26.2364L4.85303 23.8513C5.11804 23.7022 5.28367 23.4206 5.28367 23.1225V18.0375C5.28367 17.7394 5.44931 17.4578 5.71432 17.3088L7.4866 16.2818C7.61911 16.199 7.76818 16.1659 7.91725 16.1659C8.06632 16.1659 8.21539 16.199 8.33134 16.2818L10.1036 17.3088C10.3686 17.4578 10.5343 17.7394 10.5343 18.0375V23.1225C10.5343 23.4206 10.6999 23.7022 10.9649 23.8513L15.1389 26.2364C15.2714 26.3192 15.437 26.3192 15.5695 26.2364C15.702 26.1702 15.7849 26.0211 15.7849 25.872L15.7683 15.0064Z" fill="#1E0E04"/>
<path d="M49.5245 0.0496902C49.392 -0.0165634 49.2264 -0.0165634 49.1104 0.0496902C48.9779 0.132507 48.8951 0.265014 48.8951 0.414085V11.1803C48.8951 11.2797 48.8454 11.379 48.746 11.4453C48.6467 11.495 48.5473 11.495 48.4479 11.4453L46.6922 10.4349C46.4272 10.2859 46.1125 10.2859 45.8474 10.4349L38.8246 14.493C38.5596 14.642 38.3939 14.9236 38.3939 15.2218V23.3212C38.3939 23.6194 38.5596 23.901 38.8246 24.05L45.8474 28.1081C46.1125 28.2571 46.4272 28.2571 46.6922 28.1081L53.7151 24.05C53.9801 23.901 54.1457 23.6194 54.1457 23.3212V3.13048C54.1457 2.81578 53.9801 2.5342 53.7151 2.38513L49.5245 0.0496902ZM48.8785 20.6545C48.8785 20.7374 48.8454 20.8036 48.7792 20.8367L46.3775 22.2281C46.3112 22.2612 46.2284 22.2612 46.1621 22.2281L43.7605 20.8367C43.6942 20.8036 43.6611 20.7208 43.6611 20.6545V17.8719C43.6611 17.7891 43.6942 17.7228 43.7605 17.6897L46.1621 16.2984C46.2284 16.2652 46.3112 16.2652 46.3775 16.2984L48.7792 17.6897C48.8454 17.7228 48.8785 17.8056 48.8785 17.8719V20.6545Z" fill="#1E0E04"/>
<path d="M72.8955 17.8056C73.1605 17.6566 73.3096 17.375 73.3096 17.0769V15.1058C73.3096 14.8077 73.1439 14.5261 72.8955 14.377L65.9223 10.3356C65.6573 10.1865 65.3426 10.1865 65.0775 10.3356L58.0547 14.3936C57.7897 14.5427 57.624 14.8242 57.624 15.1224V23.2219C57.624 23.52 57.7897 23.8016 58.0547 23.9507L65.0279 27.9259C65.2929 28.075 65.6076 28.075 65.856 27.9259L70.0797 25.5739C70.2122 25.5076 70.295 25.3586 70.295 25.2095C70.295 25.0604 70.2122 24.9113 70.0797 24.8451L63.0237 20.7871C62.8912 20.7042 62.8084 20.5717 62.8084 20.4227V17.8885C62.8084 17.7394 62.8912 17.5903 63.0237 17.5241L65.2266 16.2653C65.3591 16.1824 65.5248 16.1824 65.6573 16.2653L67.8602 17.5241C67.9927 17.6069 68.0755 17.7394 68.0755 17.8885V19.8761C68.0755 20.0251 68.1583 20.1742 68.2908 20.2405C68.4234 20.3233 68.589 20.3233 68.7215 20.2405L72.8955 17.8056Z" fill="#1E0E04"/>
<path d="M65.3922 17.4247C65.4419 17.3916 65.5082 17.3916 65.5579 17.4247L66.8995 18.2032C66.9492 18.2364 66.9823 18.286 66.9823 18.3523V19.9092C66.9823 19.9755 66.9492 20.0252 66.8995 20.0583L65.5579 20.8368C65.5082 20.8699 65.4419 20.8699 65.3922 20.8368L64.0506 20.0583C64.0009 20.0252 63.9678 19.9755 63.9678 19.9092V18.3523C63.9678 18.286 64.0009 18.2364 64.0506 18.2032L65.3922 17.4247Z" fill="#1E0E04"/>
<mask id="mask0" mask-type="alpha" maskUnits="userSpaceOnUse" x="19" y="10" width="16" height="19">
<path d="M27.5118 10.3686C27.2468 10.2196 26.9321 10.2196 26.6671 10.3686L19.6939 14.3935C19.4289 14.5426 19.2798 14.8242 19.2798 15.1223V23.1887C19.2798 23.4868 19.4454 23.7684 19.6939 23.9175L26.6671 27.9424C26.9321 28.0915 27.2468 28.0915 27.5118 27.9424L34.485 23.9175C34.75 23.7684 34.8991 23.4868 34.8991 23.1887V15.1223C34.8991 14.8242 34.7334 14.5426 34.485 14.3935L27.5118 10.3686Z" fill="white"/>
</mask>
<g mask="url(#mask0)">
<path d="M27.5118 10.3686C27.2468 10.2196 26.9321 10.2196 26.6671 10.3686L19.6939 14.3935C19.4289 14.5426 19.2798 14.8242 19.2798 15.1223V23.1887C19.2798 23.4868 19.4454 23.7684 19.6939 23.9175L26.6671 27.9424C26.9321 28.0915 27.2468 28.0915 27.5118 27.9424L34.485 23.9175C34.75 23.7684 34.8991 23.4868 34.8991 23.1887V15.1223C34.8991 14.8242 34.7334 14.5426 34.485 14.3935L27.5118 10.3686Z" fill="#1E0E04"/>
<path fill-rule="evenodd" clip-rule="evenodd" d="M34.5181 23.9176L27.5283 27.9425C27.4289 27.9921 27.3296 28.0253 27.2136 28.0418L27.3461 28.2903L35.0978 23.8016V23.7022L34.899 23.371C34.8659 23.6029 34.7168 23.8016 34.5181 23.9176Z" fill="#1E0E04"/>
<path fill-rule="evenodd" clip-rule="evenodd" d="M34.5181 23.9176L27.5283 27.9425C27.4289 27.9921 27.3296 28.0253 27.2136 28.0418L27.3461 28.2903L35.0978 23.8016V23.7022L34.899 23.371C34.8659 23.6029 34.7168 23.8016 34.5181 23.9176Z" fill="#1E0E04"/>
</g>
</g>
<defs>
<clipPath id="clip0">
<rect width="73.3758" height="45" fill="white"/>
</clipPath>
</defs>
</svg>
