<svg width="45" height="45" viewBox="0 0 45 45" fill="none" xmlns="http://www.w3.org/2000/svg">
<path d="M18.487 22.4533C18.487 20.2345 20.2892 18.4323 22.508 18.4323C24.7268 18.4323 26.529 20.2345 26.529 22.4533C26.529 24.672 24.7268 26.4743 22.508 26.4743C20.2892 26.4743 18.487 24.672 18.487 22.4533ZM45 22.4533C45 25.2167 41.7399 28.0122 36.4854 29.7504C36.2131 29.8385 35.9327 29.9266 35.6444 30.0147C35.7485 30.4232 35.8366 30.8237 35.9167 31.2162C36.4053 33.6993 36.4854 36.0061 36.141 37.8805C35.7725 39.875 34.9395 41.2927 33.738 41.9896C33.1372 42.342 32.4243 42.5182 31.6314 42.5182C29.4526 42.5182 26.6892 41.2046 23.8056 38.7215C23.3971 38.3691 22.9966 38.0006 22.5881 37.6081C22.2757 37.9125 21.9633 38.2009 21.6509 38.4732C19.7446 40.1393 17.7821 41.3568 15.9879 41.9896C15.0507 42.326 14.1696 42.4942 13.3847 42.4942C12.5676 42.4942 11.8467 42.318 11.238 41.9656C8.93912 40.6359 8.13813 36.8071 9.10733 31.7208C9.20345 31.2002 9.3236 30.6635 9.45977 30.1188C9.03524 29.9987 8.62673 29.8705 8.23425 29.7343C5.83927 28.9173 3.80473 27.828 2.35493 26.5864C0.817017 25.2728 0 23.839 0 22.4533C0 19.794 2.91563 17.1907 7.80972 15.4926C8.34639 15.3084 8.90708 15.1322 9.4838 14.964C9.35564 14.4593 9.2435 13.9627 9.14738 13.4741C8.67479 11.0551 8.58668 8.83633 8.89106 7.05011C9.22748 5.10369 10.0205 3.71796 11.1979 3.03712C13.5849 1.65139 17.646 3.07717 21.7791 6.75374C22.0274 6.97802 22.2757 7.21031 22.532 7.45061C22.9085 7.09016 23.285 6.74573 23.6534 6.41732C25.5117 4.79931 27.3941 3.61384 29.0922 2.98906C30.9425 2.30821 32.5445 2.30821 33.714 2.98105C36.1089 4.35876 36.9019 8.58802 35.7805 14.0028C35.7164 14.3312 35.6363 14.6596 35.5562 14.996C36.0529 15.1402 36.5335 15.2924 36.998 15.4526C39.3289 16.2536 41.2914 17.2949 42.6851 18.4483C44.199 19.7139 45 21.0996 45 22.4533V22.4533ZM23.8777 8.82031C25.1593 10.198 26.4409 11.8 27.6744 13.5622C29.7971 13.7625 31.8236 14.0829 33.6979 14.5154C33.77 14.211 33.8421 13.9147 33.8982 13.6183C34.9475 8.51594 34.0424 5.39205 32.7528 4.64712C32.0959 4.27065 31.0306 4.31871 29.749 4.7913C28.2672 5.33598 26.5931 6.4013 24.911 7.86713C24.5666 8.1635 24.2221 8.4839 23.8777 8.82031V8.82031ZM11.8387 28.7331C13.1203 29.0134 14.5061 29.2377 15.9799 29.3979C15.4993 28.645 15.0267 27.876 14.5701 27.0911C14.1216 26.3221 13.697 25.5451 13.2965 24.7682C12.7278 26.1138 12.2312 27.4515 11.8387 28.7331ZM14.5701 17.9116C15.0187 17.1427 15.4753 16.3817 15.9478 15.6448C14.5221 15.821 13.1524 16.0613 11.8628 16.3417C12.2553 17.6072 12.7358 18.9129 13.2965 20.2425C13.697 19.4656 14.1216 18.6886 14.5701 17.9116ZM16.2362 26.1299C16.9331 27.3313 17.67 28.5008 18.4389 29.6142C19.7446 29.6943 21.1063 29.7423 22.508 29.7423C23.9178 29.7423 25.2955 29.6943 26.6251 29.5982C27.354 28.5008 28.0749 27.3394 28.7878 26.1138C29.4927 24.8963 30.1415 23.6708 30.7262 22.4693C30.1415 21.2918 29.5007 20.0903 28.7878 18.8648C28.091 17.6553 27.362 16.5019 26.6171 15.3965C25.2795 15.2924 23.9017 15.2443 22.508 15.2443C21.1303 15.2443 19.7526 15.3004 18.4069 15.4045C17.654 16.5099 16.9171 17.6713 16.2282 18.8728C15.5393 20.0663 14.8985 21.2838 14.3138 22.5013C14.8985 23.7108 15.5393 24.9284 16.2362 26.1299V26.1299ZM29.0762 29.3659C30.558 29.1897 31.9678 28.9494 33.2734 28.653C32.8729 27.3954 32.3683 26.0658 31.7595 24.6881C31.351 25.481 30.9105 26.282 30.4539 27.075C29.9973 27.86 29.5408 28.629 29.0762 29.3659V29.3659ZM33.1773 16.3657C31.8797 16.0693 30.502 15.829 29.0682 15.6448C29.5327 16.3737 29.9893 17.1267 30.4379 17.8956C30.8944 18.6886 31.327 19.4736 31.7355 20.2425C32.3042 18.9129 32.7928 17.6072 33.1773 16.3657ZM19.8567 13.386C20.7298 13.3459 21.6109 13.3219 22.5 13.3219C23.4051 13.3219 24.2942 13.3459 25.1833 13.386C24.3103 12.2246 23.4211 11.1512 22.532 10.19C21.6269 11.1592 20.7298 12.2326 19.8567 13.386V13.386ZM11.0377 13.1056C11.1258 13.5622 11.23 14.0188 11.3501 14.4914C13.2164 14.0668 15.243 13.7545 17.3656 13.5542C18.5991 11.816 19.8887 10.2221 21.1944 8.8123C20.9701 8.59604 20.7458 8.38778 20.5215 8.19554C16.6127 4.73523 13.4567 3.95826 12.1671 4.70319C11.5103 5.07966 11.0217 6.03285 10.7894 7.37852C10.5251 8.93245 10.6052 10.9189 11.0377 13.1056ZM12.1912 22.5093C11.3021 20.5709 10.5571 18.6566 9.99644 16.8223C9.45977 16.9745 8.94713 17.1347 8.45052 17.3109C3.94891 18.8808 1.9304 21.0275 1.9304 22.4613C1.9304 23.9511 4.1011 26.2981 8.85902 27.9241C9.21947 28.0442 9.58793 28.1644 9.97241 28.2765C10.5411 26.4102 11.286 24.4718 12.1912 22.5093V22.5093ZM21.2424 36.2384C19.9208 34.8287 18.6232 33.2187 17.3816 31.4645C15.1869 31.2883 13.1524 30.9919 11.3261 30.5834C11.1979 31.096 11.0938 31.5927 10.9977 32.0732C10.1086 36.7591 10.9656 39.5786 12.1992 40.2915C13.4888 41.0364 16.6047 40.3315 20.3934 37.0154C20.6657 36.7751 20.9541 36.5108 21.2424 36.2384V36.2384ZM25.2234 31.6007C24.3343 31.6407 23.4211 31.6647 22.508 31.6647C21.6109 31.6647 20.7378 31.6487 19.8807 31.6167C20.7698 32.7861 21.675 33.8675 22.5881 34.8527C23.4612 33.8835 24.3503 32.8022 25.2234 31.6007V31.6007ZM34.0424 31.5927C33.9703 31.2322 33.8902 30.8718 33.7941 30.4953C31.9357 30.9278 29.8852 31.2402 27.7065 31.4325C26.4649 33.2347 25.1913 34.8447 23.9338 36.2224C24.3102 36.5909 24.6947 36.9353 25.0632 37.2557C28.6757 40.3636 31.5432 41.0364 32.7848 40.3155C34.0744 39.5786 35.0196 36.5268 34.0424 31.5927V31.5927ZM43.0856 22.4533C43.0856 21.6923 42.5089 20.7952 41.4596 19.9221C40.2501 18.9129 38.4879 17.9917 36.3813 17.2628C35.9487 17.1186 35.5002 16.9745 35.0436 16.8383C34.4909 18.6245 33.754 20.5229 32.8489 22.4613C33.7941 24.4558 34.563 26.3702 35.1237 28.1564C35.38 28.0763 35.6363 27.9962 35.8847 27.9161C40.8268 26.282 43.0856 23.9351 43.0856 22.4533V22.4533Z" fill="black"/>
</svg>
