<svg width="81" height="45" viewBox="0 0 81 45" fill="none" xmlns="http://www.w3.org/2000/svg">
<path d="M56.6478 0L56.3256 1.67955C55.8273 4.86254 56.0077 5.77319 57.3737 6.95446L58.6925 8.04553L57.3265 14.1366C56.5103 17.7706 55.5095 20.8161 54.8737 21.817C54.3282 22.6804 53.6924 23.9519 53.555 24.6349C53.3273 25.451 52.5541 26.2715 51.3729 26.9974C50.329 27.5902 48.2801 29.1796 46.8282 30.4553C45.6684 31.4991 44.8694 32.1392 44.4356 32.4141L43.0181 33.5352C42.5627 34.2655 42.305 34.8539 42.2062 35.3007C42.1074 35.7603 42.1632 36.0653 42.3093 36.2887C42.451 36.5034 42.6959 36.6538 43.0309 36.7483C43.4276 36.8412 43.8358 36.8745 44.2423 36.8471C45.1618 36.7843 46.0719 36.623 46.9571 36.366C47.2577 36.2844 47.494 36.207 47.7002 36.1383C48.018 35.7474 48.7526 35.0086 50.0541 33.7242C53.5077 30.3179 54.8265 28.4536 53.4648 28.9562C52.9622 29.1366 53.1899 28.6813 54.0533 27.7706C55.8746 25.9966 56.9184 23.3161 59.1005 14.9098C60.8273 8.27319 60.8273 8.17869 62.0988 8.17869C62.6959 8.17869 64.384 8.28178 64.384 8.28178V0H60.5095H56.6478ZM63.1383 13.5954C62.8634 13.5954 62.4081 14.0077 62.1375 14.4631C61.6392 15.2792 62.2277 15.7775 69.7277 20.4596C74.1821 23.2818 77.7732 25.6873 77.683 25.872C77.5928 26.0052 73.9545 28.372 69.5945 31.0997C61.6821 36.0052 61.6392 36.0524 62.3651 37.0533C63.2758 38.2345 62.3651 38.6426 72.6357 32.2337L80.0928 27.4613V23.8703L71.7723 18.7328C67.2749 15.9149 63.366 13.6426 63.1383 13.5954ZM17.0447 14.0979C16.817 14.0979 12.9081 16.4175 8.41065 19.1881L0 24.3256V27.9167L8.3634 33.1443C13.0026 36.0051 16.9115 38.372 17.0919 38.372C17.2723 38.372 17.6375 37.9596 18.0026 37.4613C18.5481 36.5979 18.0885 36.2328 10.4081 31.3703C3.09278 26.7783 2.31959 26.1426 3.04983 25.6443C3.50516 25.3265 6.95876 23.1873 10.6873 20.872C19.1881 15.6443 18.7328 16.0052 18.0498 14.9141C17.7792 14.4631 17.3196 14.055 17.049 14.0979H17.0447ZM41.3471 14.1967C40.0928 14.1881 37.3952 16.0997 29.3196 22.6933C28.9717 23.5223 28.9416 24.0936 29.1005 24.4631C29.2036 24.7165 29.3926 24.8926 29.6546 25.0215C29.9124 25.1503 30.2474 25.2277 30.6168 25.2577C31.3514 25.3222 32.2191 25.2062 32.9192 25.0687L33.3918 24.9613C33.5535 24.7444 33.7659 24.5704 34.0103 24.4545C34.5086 24.1795 36.6005 22.2723 38.6924 20.2277C42.3737 16.4991 43.2371 14.8153 41.738 14.2698C41.615 14.2208 41.4837 14.196 41.3514 14.1967H41.3471ZM50.7801 16.7869C49.6761 16.817 47.6873 18.0971 44.2809 20.8161C42.5713 22.2036 41.4888 22.951 40.9089 23.1057L38.6581 24.884C37.8119 26.4304 37.6873 27.3883 37.9107 27.9167C37.9666 28.047 38.0477 28.165 38.1495 28.2638C38.2512 28.3626 38.3715 28.4402 38.5034 28.4923C38.8316 28.6219 39.1815 28.6875 39.5344 28.6856C40.3775 28.6766 41.2155 28.5538 42.0258 28.3204C42.4481 28.2071 42.8651 28.0753 43.2758 27.9253L43.4004 27.8737L43.628 27.7534C44.0576 27.1993 45.0455 26.1555 46.2826 24.9527C50.1916 21.1813 52.189 18.5009 51.7809 17.5C51.5962 17.0146 51.2784 16.7698 50.7801 16.7869ZM40.3677 21.4261C40.0498 21.4605 39.3368 22.0103 38.0524 23.1357C36.1967 24.7766 34.1735 25.7216 33.4734 25.3007C33.3107 25.3374 33.1474 25.3718 32.9837 25.4038C32.2706 25.5455 31.3815 25.6615 30.5868 25.5971C30.2124 25.5744 29.8454 25.4826 29.5043 25.3265C29.1826 25.1794 28.9259 24.9196 28.7827 24.5962C28.6237 24.2096 28.6237 23.7285 28.8041 23.1143L26.012 25.4081L19.6933 30.6357V39.1108L40.3978 22.8007C40.3938 22.6221 40.4169 22.4439 40.4665 22.2723C40.6254 21.6967 40.6168 21.4046 40.3677 21.4304V21.4261ZM49.2766 24.171C48.9631 24.171 48.439 24.6134 47.6014 25.5026C46.4631 26.7182 44.6718 27.8952 43.7225 28.1357L43.5765 28.2131C43.4206 28.2774 43.263 28.3376 43.104 28.3935C42.8462 28.4794 42.5112 28.5825 42.1246 28.6856C41.3514 28.896 40.3892 29.0893 39.5301 29.0679C39.1251 29.0673 38.7239 28.9886 38.3488 28.8359C37.9952 28.6902 37.7119 28.413 37.5584 28.0627C37.3093 27.4656 37.4081 26.628 37.9536 25.4381L19.689 39.8239V45H27.7131L44.732 31.6323C45.1744 31.1426 45.8402 30.4725 46.738 29.6349C49.1435 27.4055 49.689 26.6366 49.689 25.4983C49.689 24.6134 49.5902 24.1667 49.2766 24.1667V24.171ZM53.3273 32.5472L51.8711 33.9991C51.055 34.7723 49.5988 35.7259 48.6022 36.134L48.4046 36.2199L48.3918 36.2414L48.3488 36.2844C48.3101 36.3144 48.293 36.3187 48.2629 36.3316C47.8651 36.4822 47.4609 36.6155 47.0516 36.7311C46.1414 36.996 45.2053 37.1616 44.2595 37.2251C43.8123 37.2537 43.3633 37.2146 42.9278 37.1091C42.5499 37.0259 42.2163 36.8055 41.9914 36.4905C41.7852 36.1727 41.7251 35.7474 41.8411 35.2234C41.9333 34.8503 42.0703 34.4897 42.2491 34.1495L28.5163 45H46.7809L48.9631 42.5C51.9613 39.0034 53.3273 36.5034 53.3273 34.3643V32.5472Z" fill="black"/>
</svg>
