<svg width="41" height="45" viewBox="0 0 41 45" fill="none" xmlns="http://www.w3.org/2000/svg">
<path d="M31.677 1.99646H3.44078C1.54836 1.99646 0 3.5451 0 5.43745V36.5767C0 38.469 1.54836 40.0174 3.44078 40.0174H22.0379C21.8268 30.764 24.9867 12.8062 31.677 1.99646Z" fill="#1E0E04"/>
<path d="M30.6507 3.00049H3.44026C2.09654 3.00049 1.00305 4.09369 1.00305 5.43767V34.305C7.16562 31.9398 16.4149 29.899 22.8102 29.9917C24.0953 23.2719 27.8724 10.1026 30.6507 3.00049Z" fill="#1E0E04"/>
<path d="M38.2629 0.977561C36.329 -0.747015 33.9876 -0.0542762 31.6767 1.99663C31.3337 2.30132 30.9914 2.63935 30.6509 3.00044C26.6977 7.19412 23.0283 14.9622 21.8883 20.8946C22.3324 21.7952 22.6793 22.9444 22.9077 23.8223C22.9662 24.0476 23.0191 24.259 23.0613 24.4388C23.1617 24.8644 23.2156 25.1404 23.2156 25.1404C23.2156 25.1404 23.1801 25.0063 23.0347 24.5846C23.007 24.5037 22.9762 24.4154 22.9396 24.3115C22.924 24.2686 22.9024 24.2164 22.8786 24.1607C22.6208 23.5613 21.9074 22.296 21.5935 21.7452C21.325 22.5372 21.0877 23.2782 20.8891 23.9486C21.7954 25.6068 22.3476 28.4485 22.3476 28.4485C22.3476 28.4485 22.2997 28.2643 22.072 27.6215C21.8698 27.0531 20.8628 25.2887 20.6243 24.8762C20.2162 26.3826 20.0541 27.3996 20.2003 27.6472C20.4842 28.127 20.7545 28.9549 20.992 29.8704C21.5283 31.933 21.9011 34.4439 21.9011 34.4439C21.9011 34.4439 21.9131 34.6103 21.9333 34.8664C21.8589 36.5985 21.9035 38.3943 22.0376 40.0175C22.2153 42.1663 22.5498 44.0121 22.9762 45L23.2656 44.8422C22.6396 42.8959 22.3852 40.3452 22.4966 37.4036C22.6651 32.9074 23.6998 27.4851 25.6116 21.8335C28.8416 13.3021 33.3229 6.45704 37.4244 3.18808C33.6861 6.56416 28.6266 17.4923 27.112 21.5391C25.4162 26.0708 24.2144 30.3234 23.4901 34.3978C24.7398 30.5781 28.7802 28.9362 28.7802 28.9362C28.7802 28.9362 30.7619 26.4922 33.0778 23.0005C31.6906 23.3169 29.4126 23.8585 28.6497 24.1792C27.5242 24.6513 27.2209 24.8123 27.2209 24.8123C27.2209 24.8123 30.8666 22.5922 33.9944 21.587C38.2959 14.8121 42.9822 5.18755 38.2629 0.977561Z" fill="#1E0E04"/>
</svg>
