<svg width="90" height="45" viewBox="0 0 90 45" fill="none" xmlns="http://www.w3.org/2000/svg">
<path d="M30.0087 31.315V14.0309H30.9469V16.7499C31.0577 16.6295 31.1601 16.5015 31.2533 16.367C31.6367 15.5711 32.239 14.9011 32.9896 14.4353C33.7402 13.9696 34.608 13.7275 35.4913 13.7373C37.6295 13.6735 39.3656 14.4649 40.3868 16.367C41.0366 17.5485 41.3942 18.8684 41.4297 20.2164C41.4652 21.5644 41.1777 22.9013 40.591 24.1155C39.64 26.2472 37.2912 27.3068 34.7765 26.9174C33.9939 26.8508 33.2405 26.5892 32.5849 26.1566C31.9294 25.7241 31.3926 25.1342 31.0235 24.441V31.315H30.0087ZM30.9469 20.1455C31.0299 20.988 31.0618 21.5879 31.1575 22.1751C31.5277 24.4856 32.8936 25.8579 35.0382 26.1068C36.0451 26.2724 37.0783 26.0836 37.9617 25.5726C38.8451 25.0617 39.5239 24.2602 39.8826 23.3049C40.2947 22.3222 40.493 21.263 40.4644 20.1978C40.4358 19.1326 40.1809 18.0856 39.7166 17.1265C39.3338 16.2702 38.6827 15.5617 37.8618 15.1081C37.0408 14.6544 36.0945 14.4802 35.1658 14.6117C34.2939 14.6749 33.4633 15.0082 32.7895 15.5653C32.1158 16.1224 31.6324 16.8755 31.4065 17.7201C31.2066 18.519 31.0531 19.3288 30.9469 20.1455V20.1455Z" fill="#1E0E04"/>
<path d="M60.5686 22.4942C60.4265 23.7112 59.8472 24.835 58.9385 25.6569C58.0298 26.4787 56.8535 26.9425 55.6285 26.9621C51.6968 27.1599 49.8522 24.5494 49.5586 21.5369C49.3548 19.9009 49.6205 18.2406 50.3245 16.7499C50.8148 15.7273 51.6178 14.8873 52.6173 14.3515C53.6167 13.8156 54.7607 13.6117 55.8838 13.7692C56.9515 13.8597 57.9636 14.2838 58.7769 14.9814C59.5902 15.679 60.1634 16.6148 60.4154 17.6562C60.6152 18.6047 60.7622 19.5636 60.8558 20.5284H50.5224C50.3309 23.2602 51.7989 25.4558 53.8796 25.9855C56.471 26.6238 58.6858 25.5005 59.49 23.0368C59.6687 22.4049 59.9942 22.3155 60.5686 22.4942ZM50.5224 19.654H59.758C59.7006 16.7435 57.8879 14.6372 55.4306 14.6053C52.6478 14.5607 50.6437 16.5903 50.5224 19.654Z" fill="#1E0E04"/>
<path d="M62.4706 22.5581H63.3769C63.4104 23.225 63.6271 23.8698 64.0032 24.4215C64.3793 24.9733 64.9002 25.4107 65.5087 25.6856C66.2728 26.0295 67.1046 26.1966 67.9423 26.1745C68.7799 26.1524 69.6018 25.9416 70.3467 25.558C70.7527 25.375 71.0927 25.0718 71.321 24.6895C71.5492 24.3071 71.6547 23.864 71.6232 23.4198C71.6466 22.9914 71.5296 22.5671 71.29 22.2111C71.0504 21.8552 70.7013 21.5872 70.2957 21.4476C69.3 21.0774 68.2404 20.8731 67.2256 20.5476C66.1697 20.2469 65.1372 19.8693 64.1364 19.4179C62.5025 18.6201 62.4004 15.5117 64.2513 14.5288C65.1991 13.994 66.2657 13.705 67.3539 13.6883C68.442 13.6715 69.517 13.9276 70.4807 14.4331C71.0646 14.7557 71.5362 15.2487 71.8327 15.8462C72.1291 16.4438 72.2364 17.1175 72.1402 17.7776H71.3615C71.3615 17.7393 71.2913 17.7073 71.2913 17.669C71.1956 15.1862 69.1149 14.4203 66.881 14.6373C66.2141 14.7196 65.5664 14.916 64.9662 15.2181C64.6056 15.383 64.3051 15.6558 64.1062 15.9988C63.9072 16.3418 63.8197 16.738 63.8556 17.1329C63.8567 17.528 63.98 17.913 64.2085 18.2352C64.437 18.5575 64.7597 18.8011 65.1321 18.9328C66.115 19.2902 67.1426 19.52 68.1511 19.8008C68.9617 20.0242 69.8042 20.171 70.5893 20.4391C71.1434 20.6207 71.6292 20.9664 71.9826 21.4303C72.3359 21.8941 72.54 22.4544 72.5679 23.0368C72.6626 23.675 72.5539 24.3268 72.2571 24.8997C71.9604 25.4725 71.4907 25.9374 70.9148 26.2281C68.783 27.4344 65.2725 27.1153 63.7088 25.5899C63.3125 25.1913 62.999 24.7182 62.7865 24.1978C62.574 23.6775 62.4666 23.1202 62.4706 22.5581Z" fill="#1E0E04"/>
<path d="M84.0566 17.7775H83.2077C83.2077 17.6626 83.163 17.5605 83.1502 17.4647C83.1365 16.8284 82.9045 16.2161 82.4932 15.7305C82.0819 15.2448 81.5162 14.9151 80.8908 14.7968C79.7109 14.4582 78.4521 14.5188 77.3102 14.9691C76.8588 15.0985 76.4614 15.3705 76.1772 15.7443C75.8931 16.1182 75.7375 16.5739 75.7336 17.0435C75.7178 17.5046 75.8615 17.9571 76.1406 18.3245C76.4197 18.692 76.817 18.9519 77.2655 19.0604C78.542 19.4561 79.8504 19.6986 81.1461 20.0561C81.566 20.1568 81.9794 20.2826 82.3843 20.4326C82.9889 20.6489 83.5142 21.0426 83.8915 21.5622C84.2688 22.0817 84.4806 22.703 84.4993 23.3449C84.5179 23.9868 84.3424 24.6193 83.9959 25.1599C83.6493 25.7004 83.1477 26.1239 82.5567 26.3748C81.6559 26.7839 80.6797 27.0002 79.6906 27.0101C78.7014 27.02 77.721 26.8232 76.8123 26.4323C76.065 26.11 75.4344 25.5665 75.0054 24.875C74.5763 24.1835 74.3694 23.3771 74.4124 22.5644H74.7699H75.2422C75.3957 23.305 75.7274 23.997 76.2086 24.5805C76.6898 25.164 77.306 25.6213 78.0037 25.913C78.7015 26.2047 79.4599 26.3219 80.2132 26.2545C80.9665 26.187 81.692 25.937 82.3269 25.526C82.7136 25.325 83.0347 25.0174 83.2519 24.6396C83.4691 24.2617 83.5734 23.8295 83.5523 23.3942C83.5716 22.9655 83.4505 22.5423 83.2075 22.1887C82.9644 21.8351 82.6127 21.5704 82.2056 21.4347C81.2099 21.0645 80.1504 20.8666 79.1356 20.5411C78.0736 20.2451 77.0347 19.8718 76.0272 19.4242C74.4316 18.6391 74.3039 15.5563 76.123 14.5734C77.0825 14.0161 78.17 13.7168 79.2795 13.7045C80.3891 13.6922 81.4829 13.9673 82.4545 14.5032C83.0102 14.8349 83.4575 15.321 83.7419 15.9023C84.0264 16.4837 84.1357 17.1351 84.0566 17.7775V17.7775Z" fill="#1E0E04"/>
<path d="M28.4576 26.6493C28.1234 26.7759 27.7545 26.7756 27.4205 26.6486C27.0865 26.5216 26.8106 26.2766 26.6449 25.96C25.6046 24.4027 24.4557 22.9155 23.3515 21.3964L22.8728 20.7582C21.558 22.5198 20.2432 24.2112 19.0433 25.9664C18.8869 26.269 18.6259 26.5044 18.3089 26.6289C17.9919 26.7534 17.6404 26.7584 17.3199 26.643L22.2537 20.0242L17.6646 14.0437C17.9949 13.9244 18.3563 13.9228 18.6877 14.039C19.0191 14.1553 19.3003 14.3824 19.4837 14.6819C20.5495 16.2393 21.7303 17.7264 22.9047 19.3029C24.0855 17.7392 25.2535 16.2457 26.345 14.7011C26.5022 14.4034 26.7633 14.1739 27.0787 14.0562C27.3941 13.9385 27.7417 13.9409 28.0555 14.0628L26.2748 16.4244C25.4769 17.4775 24.6919 18.537 23.8621 19.5646C23.7953 19.6245 23.7418 19.6978 23.7052 19.7797C23.6686 19.8617 23.6496 19.9504 23.6496 20.0401C23.6496 20.1299 23.6686 20.2186 23.7052 20.3005C23.7418 20.3825 23.7953 20.4558 23.8621 20.5156C25.3876 22.5389 26.9002 24.5686 28.4576 26.6493V26.6493Z" fill="#1E0E04"/>
<path d="M49.4054 13.9799V14.8734C48.7599 14.8311 48.1126 14.9246 47.5054 15.1479C46.8982 15.3711 46.3446 15.7193 45.8803 16.1697C45.416 16.6202 45.0513 17.1631 44.8098 17.7632C44.5682 18.3633 44.4552 19.0075 44.478 19.654C44.478 21.756 44.478 23.858 44.478 25.96C44.478 26.1834 44.478 26.4068 44.478 26.6749H43.5653V14.0309H44.4589V16.6223C45.5631 14.733 47.2672 14.0309 49.4054 13.9799V13.9799Z" fill="#1E0E04"/>
<path d="M5.49939 19.9412C5.63342 19.303 5.7164 18.6073 5.90149 17.9562C7.00569 14.0309 11.5054 12.397 14.601 14.8287C16.4137 16.2521 16.8668 18.269 16.7775 20.5412H6.56529C6.39934 24.6005 9.32896 27.0515 13.0756 25.8005C13.6833 25.5831 14.2274 25.2177 14.6586 24.7375C15.0898 24.2572 15.3947 23.6771 15.5456 23.0496C15.7435 22.4113 16.0626 22.3028 16.669 22.4879C16.5691 23.2649 16.2944 24.0092 15.8654 24.6647C15.4365 25.3203 14.8645 25.8701 14.1925 26.2728C13.0822 26.8799 11.8083 27.1205 10.553 26.96C9.29777 26.7995 8.12539 26.2462 7.20355 25.3792C6.29157 24.3538 5.74014 23.0582 5.63342 21.6901C5.63342 21.473 5.55045 21.256 5.50577 21.0518C5.50152 20.6731 5.49939 20.3029 5.49939 19.9412ZM6.57805 19.6668H15.8137C15.7563 16.7244 13.8989 14.6373 11.4225 14.6181C8.66517 14.5798 6.69294 16.6223 6.57167 19.654L6.57805 19.6668Z" fill="#1E0E04"/>
</svg>
