<svg width="45" height="45" viewBox="0 0 45 45" fill="none" xmlns="http://www.w3.org/2000/svg">
<path d="M7.93645 38.664L4.69409 2.29468H40.3059L37.0596 38.6669L22.4913 42.7054L7.93645 38.664Z" fill="#1E0E04"/>
<path d="M22.5 5.26758V39.6163L34.2802 36.3508L37.0557 5.26758H22.5Z" fill="#1E0E04"/>
<path d="M11.328 9.72864L12.5304 23.2178H27.9911L27.4722 29.0035L22.4942 30.3494L17.5257 29.0055L17.1935 25.2905H12.716L13.3562 32.4519L22.4932 34.9895L31.6417 32.4519L32.8681 18.7577H16.6101L16.2019 14.1897H33.2588H33.2724L33.672 9.72864H11.328Z" fill="#FCFBFA"/>
<path d="M22.5 9.72864H11.328L12.5304 23.2178H22.5V18.7577H16.6101L16.2019 14.1897H22.5V9.72864Z" fill="#EBEBEB"/>
<path d="M22.5 30.3475L22.4942 30.3494L17.5256 29.0055L17.1934 25.2905H12.7159L13.3562 32.4519L22.4931 34.9896L22.5 34.9877V30.3475Z" fill="#EBEBEB"/>
</svg>
