<svg width="42" height="45" viewBox="0 0 42 45" fill="none" xmlns="http://www.w3.org/2000/svg">
<path d="M19.6137 44.8602L3.63012 40.423L0.0682373 0.472351H39.2072L35.6415 40.4167L19.6137 44.8602Z" fill="#1E0E04"/>
<path d="M32.5891 37.873L35.6362 3.73871H19.6378V41.4636L32.5891 37.873Z" fill="#1E0E04"/>
<path d="M8.23383 18.5559L8.67298 23.4556H19.6378V18.5559H8.23383Z" fill="#FCFBFA"/>
<path d="M7.35135 8.63861L7.79676 13.5384H19.6377V8.63861H7.35135Z" fill="#FCFBFA"/>
<path d="M19.6378 31.2813L19.6163 31.287L14.1594 29.8135L13.8106 25.9057H8.89194L9.5784 33.5991L19.6152 36.3854L19.6378 36.3791V31.2813Z" fill="#FCFBFA"/>
<path d="M31.0102 18.5559L31.8948 8.63861H19.6207V13.5384H26.525L26.0792 18.5559H19.6207V23.4556H25.6543L25.0855 29.8103L19.6207 31.2853V36.3829L29.6656 33.599L29.7392 32.7711L30.8906 19.8716L31.0102 18.5559Z" fill="#FF6B12"/>
</svg>
