<svg width="90" height="45" viewBox="0 0 90 45" fill="none" xmlns="http://www.w3.org/2000/svg">
<path d="M30.0086 31.315V14.0309H30.9469V16.7499C31.0577 16.6295 31.16 16.5015 31.2532 16.367C31.6366 15.5711 32.2389 14.9011 32.9895 14.4353C33.7401 13.9696 34.608 13.7275 35.4913 13.7373C37.6295 13.6735 39.3655 14.4649 40.3868 16.367C41.0365 17.5485 41.3941 18.8684 41.4297 20.2164C41.4652 21.5644 41.1776 22.9013 40.591 24.1155C39.64 26.2472 37.2912 27.3068 34.7764 26.9174C33.9939 26.8508 33.2404 26.5892 32.5849 26.1566C31.9293 25.7241 31.3925 25.1342 31.0235 24.441V31.315H30.0086ZM30.9469 20.1455C31.0298 20.988 31.0618 21.5879 31.1575 22.1751C31.5277 24.4856 32.8936 25.8579 35.0381 26.1068C36.0451 26.2724 37.0783 26.0836 37.9617 25.5726C38.845 25.0617 39.5239 24.2602 39.8825 23.3049C40.2946 22.3222 40.493 21.263 40.4644 20.1978C40.4358 19.1326 40.1809 18.0856 39.7166 17.1265C39.3338 16.2702 38.6827 15.5617 37.8617 15.1081C37.0408 14.6544 36.0945 14.4802 35.1658 14.6117C34.2938 14.6749 33.4632 15.0082 32.7895 15.5653C32.1157 16.1224 31.6323 16.8755 31.4064 17.7201C31.2065 18.519 31.0531 19.3288 30.9469 20.1455Z" fill="#1E0E04"/>
<path d="M60.5686 22.4942C60.4264 23.7112 59.8471 24.835 58.9384 25.6569C58.0297 26.4787 56.8535 26.9425 55.6284 26.9621C51.6967 27.1599 49.8522 24.5494 49.5586 21.5369C49.3548 19.9009 49.6204 18.2406 50.3245 16.7499C50.8148 15.7273 51.6178 14.8873 52.6172 14.3515C53.6167 13.8156 54.7607 13.6117 55.8837 13.7692C56.9514 13.8597 57.9636 14.2838 58.7769 14.9814C59.5902 15.679 60.1634 16.6148 60.4154 17.6562C60.6152 18.6047 60.7622 19.5636 60.8558 20.5284H50.5223C50.3309 23.2602 51.7989 25.4558 53.8796 25.9855C56.4709 26.6238 58.6857 25.5005 59.4899 23.0368C59.6686 22.4049 59.9941 22.3155 60.5686 22.4942ZM50.5223 19.654H59.758C59.7005 16.7435 57.8879 14.6372 55.4306 14.6053C52.6478 14.5607 50.6436 16.5903 50.5223 19.654Z" fill="#1E0E04"/>
<path d="M62.4706 22.5581H63.3769C63.4104 23.225 63.6271 23.8697 64.0032 24.4215C64.3793 24.9732 64.9002 25.4106 65.5087 25.6856C66.2729 26.0294 67.1047 26.1965 67.9423 26.1744C68.78 26.1523 69.6018 25.9416 70.3468 25.5579C70.7527 25.3749 71.0928 25.0718 71.321 24.6894C71.5493 24.3071 71.6548 23.8639 71.6233 23.4197C71.6466 22.9913 71.5296 22.567 71.2901 22.2111C71.0505 21.8552 70.7014 21.5871 70.2957 21.4475C69.3 21.0773 68.2405 20.8731 67.2257 20.5475C66.1697 20.2469 65.1373 19.8693 64.1365 19.4178C62.5025 18.62 62.4004 15.5117 64.2514 14.5287C65.1991 13.9939 66.2658 13.7049 67.3539 13.6882C68.442 13.6715 69.517 13.9275 70.4808 14.433C71.0646 14.7557 71.5362 15.2486 71.8327 15.8462C72.1292 16.4437 72.2365 17.1174 72.1403 17.7775H71.3616C71.3616 17.7392 71.2914 17.7073 71.2914 17.669C71.1956 15.1861 69.1149 14.4202 66.881 14.6372C66.2141 14.7195 65.5664 14.916 64.9662 15.2181C64.6056 15.383 64.3051 15.6557 64.1062 15.9987C63.9073 16.3417 63.8197 16.738 63.8556 17.1328C63.8567 17.5279 63.98 17.9129 64.2086 18.2352C64.4371 18.5574 64.7597 18.8011 65.1322 18.9327C66.1151 19.2902 67.1427 19.5199 68.1511 19.8008C68.9617 20.0242 69.8042 20.171 70.5893 20.439C71.1434 20.6207 71.6293 20.9663 71.9826 21.4302C72.3359 21.8941 72.54 22.4543 72.5679 23.0368C72.6626 23.6749 72.5539 24.3267 72.2572 24.8996C71.9604 25.4725 71.4907 25.9373 70.9148 26.2281C68.783 27.4344 65.2726 27.1153 63.7088 25.5898C63.3125 25.1912 62.9991 24.7181 62.7865 24.1978C62.574 23.6774 62.4666 23.1201 62.4706 22.5581Z" fill="#FF6B12"/>
<path d="M84.0566 17.7775H83.2077C83.2077 17.6626 83.1631 17.5605 83.1503 17.4648C83.1365 16.8285 82.9046 16.2162 82.4932 15.7305C82.0819 15.2448 81.5162 14.9152 80.8909 14.7968C79.7109 14.4583 78.4522 14.5189 77.3102 14.9692C76.8588 15.0986 76.4614 15.3705 76.1773 15.7444C75.8932 16.1182 75.7375 16.574 75.7337 17.0435C75.7178 17.5047 75.8616 17.9572 76.1407 18.3246C76.4197 18.6921 76.817 18.952 77.2655 19.0604C78.5421 19.4562 79.8505 19.6987 81.1462 20.0561C81.566 20.1569 81.9795 20.2826 82.3844 20.4327C82.989 20.649 83.5143 21.0427 83.8916 21.5622C84.2689 22.0818 84.4807 22.7031 84.4993 23.345C84.5179 23.9868 84.3425 24.6194 83.9959 25.1599C83.6493 25.7005 83.1478 26.1239 82.5567 26.3749C81.656 26.7839 80.6798 27.0003 79.6906 27.0102C78.7014 27.0201 77.7211 26.8233 76.8124 26.4323C76.0651 26.11 75.4345 25.5666 75.0054 24.875C74.5764 24.1835 74.3694 23.3772 74.4125 22.5645H74.7699H75.2422C75.3957 23.3051 75.7274 23.997 76.2086 24.5805C76.6898 25.164 77.306 25.6214 78.0038 25.9131C78.7016 26.2048 79.46 26.322 80.2133 26.2545C80.9666 26.1871 81.6921 25.937 82.3269 25.526C82.7137 25.3251 83.0347 25.0175 83.2519 24.6396C83.4691 24.2618 83.5734 23.8296 83.5524 23.3942C83.5716 22.9656 83.4506 22.5423 83.2075 22.1887C82.9645 21.8351 82.6128 21.5704 82.2057 21.4348C81.21 21.0646 80.1505 20.8667 79.1356 20.5412C78.0737 20.2451 77.0348 19.8718 76.0273 19.4242C74.4317 18.6392 74.304 15.5564 76.123 14.5735C77.0826 14.0162 78.17 13.7169 79.2796 13.7046C80.3891 13.6923 81.4829 13.9674 82.4546 14.5032C83.0103 14.835 83.4576 15.3211 83.742 15.9024C84.0264 16.4837 84.1357 17.1352 84.0566 17.7775Z" fill="#1E0E04"/>
<path d="M28.4577 26.6493C28.1235 26.7759 27.7545 26.7756 27.4205 26.6486C27.0865 26.5216 26.8106 26.2766 26.645 25.96C25.6046 24.4027 24.4558 22.9155 23.3516 21.3964L22.8729 20.7582C21.558 22.5198 20.2432 24.2112 19.0433 25.9664C18.887 26.269 18.626 26.5044 18.3089 26.6289C17.9919 26.7534 17.6404 26.7584 17.32 26.643L22.2538 20.0242L17.6647 14.0437C17.995 13.9244 18.3564 13.9228 18.6878 14.039C19.0192 14.1553 19.3003 14.3824 19.4837 14.6819C20.5496 16.2393 21.7304 17.7264 22.9048 19.3029C24.0856 17.7392 25.2536 16.2457 26.345 14.7011C26.5022 14.4034 26.7633 14.1739 27.0787 14.0562C27.3941 13.9385 27.7418 13.9409 28.0556 14.0628L26.2748 16.4244C25.477 17.4775 24.6919 18.537 23.8622 19.5646C23.7953 19.6245 23.7418 19.6978 23.7052 19.7797C23.6686 19.8617 23.6497 19.9504 23.6497 20.0401C23.6497 20.1299 23.6686 20.2186 23.7052 20.3005C23.7418 20.3825 23.7953 20.4558 23.8622 20.5156C25.3876 22.5389 26.9003 24.5686 28.4577 26.6493Z" fill="#1E0E04"/>
<path d="M49.4054 13.9799V14.8734C48.7598 14.8311 48.1126 14.9246 47.5054 15.1479C46.8982 15.3711 46.3446 15.7193 45.8803 16.1697C45.416 16.6202 45.0513 17.1631 44.8097 17.7632C44.5682 18.3633 44.4552 19.0075 44.478 19.654C44.478 21.756 44.478 23.858 44.478 25.96C44.478 26.1834 44.478 26.4068 44.478 26.6749H43.5653V14.0309H44.4588V16.6223C45.563 14.733 47.2672 14.0309 49.4054 13.9799Z" fill="#1E0E04"/>
<path d="M5.4994 19.9412C5.63343 19.303 5.71641 18.6073 5.9015 17.9562C7.00569 14.0309 11.5054 12.397 14.601 14.8287C16.4137 16.2521 16.8668 18.269 16.7775 20.5412H6.56529C6.39935 24.6005 9.32897 27.0515 13.0756 25.8005C13.6833 25.5831 14.2274 25.2177 14.6586 24.7375C15.0898 24.2572 15.3947 23.6771 15.5456 23.0496C15.7435 22.4113 16.0626 22.3028 16.669 22.4879C16.5691 23.2649 16.2944 24.0092 15.8654 24.6647C15.4365 25.3203 14.8645 25.8701 14.1925 26.2728C13.0822 26.8799 11.8083 27.1205 10.5531 26.96C9.29778 26.7995 8.1254 26.2462 7.20356 25.3792C6.29158 24.3538 5.74015 23.0582 5.63343 21.6901C5.63343 21.473 5.55046 21.256 5.50578 21.0518C5.50152 20.6731 5.4994 20.3029 5.4994 19.9412ZM6.57806 19.6668H15.8137C15.7563 16.7244 13.8989 14.6373 11.4225 14.6181C8.66517 14.5798 6.69295 16.6223 6.57168 19.654L6.57806 19.6668Z" fill="#1E0E04"/>
</svg>
