<svg width="31" height="45" viewBox="0 0 31 45" fill="none" xmlns="http://www.w3.org/2000/svg">
<g clip-path="url(#clip0)">
<path d="M7.50302 45C11.643 45 15.003 41.64 15.003 37.5V30H7.50302C3.36302 30 0.00302124 33.36 0.00302124 37.5C0.00302124 41.64 3.36302 45 7.50302 45Z" fill="#1E0E04"/>
<path d="M0.00302124 22.5C0.00302124 18.36 3.36302 15 7.50302 15H15.003V30H7.50302C3.36302 30 0.00302124 26.64 0.00302124 22.5Z" fill="#FF6B12"/>
<path d="M0.00305176 7.49999C0.00305176 3.36 3.36305 0 7.50305 0H15.0031V15H7.50305C3.36305 15 0.00305176 11.64 0.00305176 7.49999Z" fill="#1E0E04"/>
<path d="M15.003 0H22.503C26.643 0 30.003 3.36 30.003 7.49999C30.003 11.64 26.643 15 22.503 15H15.003V0Z" fill="#1E0E04"/>
<path d="M30.003 22.5C30.003 26.64 26.643 30 22.503 30C18.363 30 15.003 26.64 15.003 22.5C15.003 18.36 18.363 15 22.503 15C26.643 15 30.003 18.36 30.003 22.5Z" fill="#1E0E04"/>
</g>
<defs>
<clipPath id="clip0">
<rect width="30.006" height="45" fill="white"/>
</clipPath>
</defs>
</svg>
