<svg width="48" height="46" viewBox="0 0 48 46" fill="none" xmlns="http://www.w3.org/2000/svg">
<g clip-path="url(#clip0)">
<path d="M23.0402 0C10.3171 0 0 10.3152 0 23.0402C0 33.22 6.60172 41.8564 15.7563 44.903C16.9078 45.1162 17.3305 44.4032 17.3305 43.7946C17.3305 43.2452 17.3091 41.4302 17.2992 39.505C10.8894 40.8987 9.53687 36.7865 9.53687 36.7865C8.48879 34.1234 6.97867 33.4153 6.97867 33.4153C4.88824 31.9853 7.13625 32.0147 7.13625 32.0147C9.44988 32.1772 10.6681 34.389 10.6681 34.389C12.7231 37.9113 16.0581 36.893 17.3729 36.3043C17.5796 34.8152 18.1768 33.7987 18.8357 33.2234C13.7181 32.6408 8.33847 30.6652 8.33847 21.8368C8.33847 19.3214 9.23851 17.266 10.7124 15.6525C10.4732 15.0722 9.68453 12.7288 10.9356 9.55519C10.9356 9.55519 12.8703 8.93595 17.2733 11.9169C19.1111 11.4064 21.0821 11.1504 23.0402 11.1416C24.9982 11.1504 26.9708 11.4064 28.8121 11.9169C33.2096 8.93595 35.1417 9.55519 35.1417 9.55519C36.3959 12.7288 35.6068 15.0722 35.3676 15.6525C36.8449 17.266 37.7389 19.3214 37.7389 21.8368C37.7389 30.6862 32.3489 32.6347 27.2184 33.2051C28.0448 33.9201 28.7812 35.3222 28.7812 37.4718C28.7812 40.5546 28.7545 43.0357 28.7545 43.7946C28.7545 44.4077 29.1692 45.1262 30.3371 44.8999C39.4867 41.8499 46.08 33.2165 46.08 23.0402C46.08 10.3152 35.7644 0 23.0402 0ZM8.6293 32.8212C8.57856 32.9357 8.39847 32.97 8.23441 32.8914C8.0673 32.8163 7.97344 32.6602 8.02762 32.5454C8.07722 32.4275 8.25768 32.3947 8.42442 32.4737C8.59191 32.5488 8.68729 32.7064 8.6293 32.8212ZM9.76262 33.8325C9.65274 33.9344 9.43793 33.887 9.29219 33.726C9.14148 33.5654 9.11325 33.3506 9.22466 33.2472C9.33797 33.1453 9.54629 33.193 9.69738 33.3537C9.84809 33.5162 9.87746 33.7295 9.76262 33.8325ZM10.5401 35.1263C10.399 35.2244 10.1681 35.1324 10.0254 34.9276C9.88426 34.7227 9.88426 34.477 10.0285 34.3785C10.1716 34.2801 10.399 34.3686 10.5436 34.572C10.6843 34.7803 10.6843 35.026 10.5401 35.1263ZM11.855 36.6248C11.7288 36.7641 11.4598 36.7267 11.2629 36.5367C11.0614 36.3509 11.0054 36.0872 11.132 35.948C11.2598 35.8083 11.5304 35.8476 11.7288 36.0361C11.9287 36.2215 11.9897 36.4871 11.855 36.6248ZM13.5545 37.1307C13.4987 37.3111 13.2397 37.3932 12.9787 37.3165C12.7181 37.2375 12.5476 37.0261 12.6002 36.8438C12.6544 36.6622 12.9146 36.5767 13.1775 36.6587C13.4377 36.7373 13.6086 36.9472 13.5545 37.1307ZM15.4884 37.3453C15.4949 37.5353 15.2736 37.6928 14.9997 37.6963C14.7242 37.7024 14.5014 37.5486 14.4984 37.3617C14.4984 37.1697 14.7147 37.0137 14.9902 37.0091C15.2641 37.0038 15.4884 37.1564 15.4884 37.3453ZM17.3884 37.2724C17.4212 37.4579 17.2308 37.6482 16.9588 37.699C16.6913 37.7478 16.4437 37.6334 16.4097 37.4495C16.3766 37.2595 16.5704 37.0691 16.8374 37.0198C17.1099 36.9725 17.3537 37.0839 17.3884 37.2724Z" fill="#FF6B12"/>
</g>
<g clip-path="url(#clip1)">
<path d="M24.0402 1C11.3171 1 1 11.3152 1 24.0402C1 34.22 7.60172 42.8564 16.7563 45.903C17.9078 46.1162 18.3305 45.4032 18.3305 44.7946C18.3305 44.2452 18.3091 42.4302 18.2992 40.505C11.8894 41.8987 10.5369 37.7865 10.5369 37.7865C9.48879 35.1234 7.97867 34.4153 7.97867 34.4153C5.88824 32.9853 8.13625 33.0147 8.13625 33.0147C10.4499 33.1772 11.6681 35.389 11.6681 35.389C13.7231 38.9113 17.0581 37.893 18.3729 37.3043C18.5796 35.8152 19.1768 34.7987 19.8357 34.2234C14.7181 33.6408 9.33847 31.6652 9.33847 22.8368C9.33847 20.3214 10.2385 18.266 11.7124 16.6525C11.4732 16.0722 10.6845 13.7288 11.9356 10.5552C11.9356 10.5552 13.8703 9.93595 18.2733 12.9169C20.1111 12.4064 22.0821 12.1504 24.0402 12.1416C25.9982 12.1504 27.9708 12.4064 29.8121 12.9169C34.2096 9.93595 36.1417 10.5552 36.1417 10.5552C37.3959 13.7288 36.6068 16.0722 36.3676 16.6525C37.8449 18.266 38.7389 20.3214 38.7389 22.8368C38.7389 31.6862 33.3489 33.6347 28.2184 34.2051C29.0448 34.9201 29.7812 36.3222 29.7812 38.4718C29.7812 41.5546 29.7545 44.0357 29.7545 44.7946C29.7545 45.4077 30.1692 46.1262 31.3371 45.8999C40.4867 42.8499 47.08 34.2165 47.08 24.0402C47.08 11.3152 36.7644 1 24.0402 1ZM9.6293 33.8212C9.57856 33.9357 9.39847 33.97 9.23441 33.8914C9.0673 33.8163 8.97344 33.6602 9.02762 33.5454C9.07722 33.4275 9.25768 33.3947 9.42442 33.4737C9.59191 33.5488 9.68729 33.7064 9.6293 33.8212ZM10.7626 34.8325C10.6527 34.9344 10.4379 34.887 10.2922 34.726C10.1415 34.5654 10.1132 34.3506 10.2247 34.2472C10.338 34.1453 10.5463 34.193 10.6974 34.3537C10.8481 34.5162 10.8775 34.7295 10.7626 34.8325ZM11.5401 36.1263C11.399 36.2244 11.1681 36.1324 11.0254 35.9276C10.8843 35.7227 10.8843 35.477 11.0285 35.3785C11.1716 35.2801 11.399 35.3686 11.5436 35.572C11.6843 35.7803 11.6843 36.026 11.5401 36.1263ZM12.855 37.6248C12.7288 37.7641 12.4598 37.7267 12.2629 37.5367C12.0614 37.3509 12.0054 37.0872 12.132 36.948C12.2598 36.8083 12.5304 36.8476 12.7288 37.0361C12.9287 37.2215 12.9897 37.4871 12.855 37.6248ZM14.5545 38.1307C14.4987 38.3111 14.2397 38.3932 13.9787 38.3165C13.7181 38.2375 13.5476 38.0261 13.6002 37.8438C13.6544 37.6622 13.9146 37.5767 14.1775 37.6587C14.4377 37.7373 14.6086 37.9472 14.5545 38.1307ZM16.4884 38.3453C16.4949 38.5353 16.2736 38.6928 15.9997 38.6963C15.7242 38.7024 15.5014 38.5486 15.4984 38.3617C15.4984 38.1697 15.7147 38.0137 15.9902 38.0091C16.2641 38.0038 16.4884 38.1564 16.4884 38.3453ZM18.3884 38.2724C18.4212 38.4579 18.2308 38.6482 17.9588 38.699C17.6913 38.7478 17.4437 38.6334 17.4097 38.4495C17.3766 38.2595 17.5704 38.0691 17.8374 38.0198C18.1099 37.9725 18.3537 38.0839 18.3884 38.2724Z" fill="#1E0E04"/>
</g>
<defs>
<clipPath id="clip0">
<rect width="46.08" height="45" fill="white"/>
</clipPath>
<clipPath id="clip1">
<rect width="46.08" height="45" fill="white" transform="translate(1 1)"/>
</clipPath>
</defs>
</svg>
