<svg width="45" height="45" viewBox="0 0 45 45" fill="none" xmlns="http://www.w3.org/2000/svg">
<path d="M7.93648 38.6641L4.69412 2.29474H40.3059L37.0596 38.667L22.4913 42.7055L7.93648 38.6641Z" fill="#1E0E04"/>
<path d="M22.5 5.26764V39.6163L34.2802 36.3509L37.0557 5.26764H22.5Z" fill="#1E0E04"/>
<path d="M11.328 9.7287L12.5304 23.2179H27.9911L27.4723 29.0036L22.4943 30.3495L17.5257 29.0056L17.1935 25.2906H12.716L13.3563 32.452L22.4932 34.9896L31.6417 32.452L32.8682 18.7577H16.6102L16.2019 14.1898H33.2588H33.2724L33.672 9.7287H11.328Z" fill="#FCFBFA"/>
<path d="M22.5 9.7287H11.328L12.5304 23.2179H22.5V18.7577H16.6102L16.2019 14.1898H22.5V9.7287Z" fill="#FF6B12"/>
<path d="M22.5 30.3476L22.4943 30.3495L17.5257 29.0056L17.1935 25.2906H12.716L13.3563 32.4521L22.4932 34.9897L22.5 34.9878V30.3476Z" fill="#FF6B12"/>
</svg>
