<svg width="45" height="45" viewBox="0 0 45 45" fill="none" xmlns="http://www.w3.org/2000/svg">
<path d="M0 0H45V45H0V0Z" fill="#1E0E04"/>
<path d="M11.8327 37.6052L15.2764 35.5212C15.9407 36.6991 16.5451 37.6957 17.9947 37.6957C19.3843 37.6957 20.2604 37.1522 20.2604 35.0379V20.6593H24.4892V35.0977C24.4892 39.4777 21.9218 41.4713 18.176 41.4713C14.7931 41.4713 12.8294 39.7192 11.8326 37.6049" fill="#FF6B12"/>
<path d="M26.7854 37.1519L30.2287 35.1583C31.1351 36.6386 32.3132 37.7259 34.3974 37.7259C36.1496 37.7259 37.2669 36.8499 37.2669 35.6416C37.2669 34.1916 36.1191 33.6781 34.1859 32.8326L33.1289 32.3791C30.0779 31.0805 28.0539 29.4494 28.0539 26.0057C28.0539 22.834 30.4704 20.4174 34.2464 20.4174C36.9349 20.4174 38.8681 21.3539 40.2574 23.8006L36.9649 25.915C36.2399 24.6162 35.4547 24.1028 34.2465 24.1028C33.008 24.1028 32.2226 24.8881 32.2226 25.915C32.2226 27.1837 33.008 27.6974 34.8202 28.4828L35.8774 28.9359C39.472 30.4765 41.4959 32.0471 41.4959 35.5811C41.4959 39.3874 38.5055 41.4715 34.4881 41.4715C30.5612 41.4715 28.0238 39.5988 26.7855 37.1519" fill="#FCFBFA"/>
</svg>
