<svg width="46" height="46" viewBox="0 0 46 46" fill="none" xmlns="http://www.w3.org/2000/svg">
<path d="M44.7498 24.966L39.2108 22.2902L44.4578 19.8362C44.8649 19.6453 45.1038 19.1418 44.8224 18.6725L44.2771 18.0413C43.9252 17.6563 43.5431 17.3757 43.0788 17.5584L39.1803 19.0279C39.0952 19.06 39.002 19.0639 38.9144 19.0392L37.4053 18.6117C37.3503 18.5961 37.2922 18.5951 37.2367 18.6088C37.1812 18.6225 37.1302 18.6504 37.0887 18.6897L35.4745 20.222C35.1211 18.1906 34.2936 16.2712 33.0591 14.6197L35.419 14.6012C35.4689 14.6008 35.5178 14.5871 35.5607 14.5615C35.6036 14.5359 35.6389 14.4994 35.663 14.4557L36.4983 12.9404C36.5417 12.8616 36.6104 12.7996 36.6932 12.7645L40.5548 11.1179C40.7919 11.0169 40.9378 10.5242 40.8923 10.2046L40.7666 9.05146C40.6639 8.72029 40.1988 8.42884 39.9766 8.51093L34.1679 10.5356L36.143 5.08988C36.2958 4.66713 36.1087 4.14242 35.5779 4.00936L34.7459 3.94871C34.2249 3.92551 33.7563 3.99705 33.5571 4.45461L31.8395 8.25025C31.802 8.33314 31.7389 8.40182 31.6595 8.44624L30.2902 9.21089C30.2403 9.23879 30.1985 9.2792 30.1689 9.32814C30.1393 9.37708 30.123 9.43287 30.1215 9.49003L30.0634 11.7158C28.377 10.5288 26.434 9.7568 24.3927 9.46279L26.0497 7.77986C26.0847 7.74428 26.1096 7.70001 26.1219 7.6516C26.1342 7.60319 26.1333 7.55238 26.1194 7.50441L25.6387 5.8424C25.6137 5.7559 25.6183 5.66352 25.6519 5.57996L27.2181 1.68518C27.3146 1.44612 27.0694 0.99436 26.811 0.80065L25.9067 0.0739711C25.5998 -0.0873959 25.0648 0.0351235 24.9658 0.250279L22.29 5.78949L19.836 0.542252C19.6451 0.135143 19.1416 -0.103568 18.6723 0.177682L18.0411 0.72313C17.6561 1.07504 17.3756 1.45702 17.5584 1.92143L19.0277 5.81972C19.0599 5.90498 19.0638 5.99814 19.039 6.08568L18.6116 7.59494C18.596 7.64991 18.595 7.70801 18.6087 7.76349C18.6224 7.81898 18.6503 7.86994 18.6897 7.91134L20.2218 9.52554C18.1905 9.87893 16.2712 10.7064 14.6197 11.9408L14.601 9.58126C14.6007 9.53129 14.587 9.48232 14.5615 9.43937C14.5359 9.39643 14.4994 9.36107 14.4556 9.33693L12.9404 8.50179C12.8616 8.45835 12.7996 8.38979 12.7643 8.30703L11.1179 4.44512C11.0168 4.20817 10.5241 4.06227 10.2044 4.10797L9.05125 4.23348C8.72026 4.33631 8.42864 4.80125 8.51073 5.02344L10.5356 10.8323L5.08985 8.85722C4.66692 8.70429 4.14221 8.8915 4.00914 9.42236L3.9485 10.2543C3.9253 10.7752 3.99684 11.244 4.4544 11.443L8.25004 13.1603C8.333 13.1979 8.4017 13.2611 8.44604 13.3407L9.21104 14.71C9.26764 14.8115 9.37381 14.8756 9.49 14.8786L11.7154 14.9366C10.5285 16.623 9.75668 18.566 9.46276 20.6071L7.77965 18.9504C7.74407 18.9154 7.6998 18.8904 7.65139 18.8782C7.60298 18.8659 7.55218 18.8667 7.5042 18.8806L5.84219 19.3614C5.75576 19.3865 5.66341 19.3818 5.57993 19.3482L1.68514 17.7818C1.4459 17.6856 0.99432 17.9309 0.800609 18.1891L0.0739291 19.0935C-0.0874381 19.4002 0.0352573 19.9351 0.250414 20.0343L5.78928 22.71L0.54221 25.1639C0.135101 25.355 -0.10361 25.8582 0.17764 26.3276L0.723089 26.959C1.075 27.3438 1.45715 27.6245 1.92139 27.4418L5.81987 25.9723C5.90505 25.9403 5.99824 25.9363 6.08582 25.9611L7.59491 26.3886C7.7067 26.4202 7.82694 26.3903 7.91131 26.3105L9.52569 24.7782C9.87906 26.8096 10.7065 28.7289 11.9409 30.3804L9.58123 30.399C9.53131 30.3994 9.48239 30.4131 9.43951 30.4387C9.39664 30.4643 9.36134 30.5008 9.33725 30.5446L8.50194 32.0596C8.45834 32.1385 8.38968 32.2005 8.30682 32.2359L4.44543 33.8823C4.20813 33.9834 4.06223 34.4761 4.10793 34.7956L4.23344 35.9488C4.33627 36.2799 4.80121 36.5714 5.02358 36.4893L10.8323 34.4646L8.85719 39.9103C8.70426 40.3331 8.89147 40.8578 9.42233 40.9909L10.2543 41.0515C10.7751 41.0747 11.2439 41.0032 11.4429 40.5456L13.1603 36.75C13.198 36.6671 13.2612 36.5984 13.3407 36.554L14.71 35.7892C14.8114 35.7324 14.8756 35.6264 14.8786 35.5102L14.9366 33.2845C16.623 34.4715 18.566 35.2435 20.6073 35.5374L18.9504 37.2204C18.9154 37.256 18.8905 37.3003 18.8783 37.3487C18.8661 37.3971 18.8669 37.4479 18.8808 37.4958L19.3615 39.1578C19.3865 39.2443 19.3818 39.3367 19.3482 39.4203L17.7818 43.315C17.6856 43.5541 17.9308 44.0059 18.1892 44.1996L19.0933 44.9261C19.4 45.0874 19.9349 44.9648 20.0342 44.7498L22.7096 39.2106L25.1641 44.4576C25.355 44.8649 25.8582 45.1036 26.3277 44.8224L26.9588 44.2769C27.3436 43.925 27.6245 43.5429 27.4417 43.0786L25.9721 39.1803C25.9401 39.0951 25.9362 39.0019 25.9611 38.9144L26.3882 37.4051C26.4199 37.2933 26.3903 37.1731 26.3103 37.0887L24.7782 35.4743C26.8096 35.121 28.729 34.2935 30.3804 33.0589L30.399 35.419C30.3997 35.5206 30.4553 35.6139 30.5444 35.6629L32.0596 36.4983C32.1384 36.5417 32.2002 36.6102 32.2357 36.693L33.8821 40.5548C33.9832 40.7919 34.4759 40.9378 34.7957 40.8921L35.9486 40.7666C36.2798 40.6637 36.5712 40.1988 36.4893 39.9766L34.4643 34.1678L39.91 36.1428C40.3331 36.2958 40.8578 36.1086 40.9909 35.5777L41.0515 34.7457C41.0747 34.2249 41.003 33.7561 40.5456 33.5571L36.75 31.8395C36.667 31.802 36.5983 31.7388 36.5538 31.6594L35.789 30.29C35.7611 30.2401 35.7207 30.1983 35.6718 30.1687C35.6229 30.1392 35.5672 30.1228 35.51 30.1213L33.2843 30.0633C34.4713 28.3769 35.2432 26.4341 35.5373 24.3929L37.2204 26.0497C37.2559 26.0847 37.3002 26.1096 37.3486 26.1218C37.3969 26.1341 37.4477 26.1333 37.4957 26.1194L39.1578 25.6387C39.2443 25.6136 39.3366 25.6182 39.4201 25.6519L43.3149 27.2181C43.554 27.3144 44.0057 27.0692 44.1994 26.811L44.9259 25.9067C45.0875 25.6 44.9648 25.0651 44.7498 24.966ZM31.9457 21.0309H29.1446C28.9442 20.1209 28.558 19.2621 28.0103 18.5083L29.9736 16.5448C30.9879 17.8163 31.6864 19.3508 31.9457 21.0309ZM26.159 16.7635C25.3743 16.2609 24.4941 15.926 23.5738 15.7798V13.0037C25.2248 13.1878 26.7988 13.8016 28.1386 14.7839L26.159 16.7635ZM25.818 22.5001C25.818 24.3325 24.3326 25.818 22.5001 25.818C20.6678 25.818 19.1822 24.3325 19.1822 22.5001C19.1822 20.6678 20.6676 19.1822 22.5001 19.1822C24.3326 19.1822 25.818 20.6676 25.818 22.5001ZM21.0309 13.0545V15.8556C20.121 16.0561 19.2623 16.4423 18.5085 16.9899L16.545 15.0264C17.8164 14.0122 19.3505 13.3138 21.0309 13.0545ZM16.7635 18.8412C16.261 19.626 15.9262 20.5061 15.78 21.4264H13.0037C13.188 19.7754 13.8017 18.2014 14.7838 16.8614L16.7635 18.8412ZM13.0545 23.9693H15.8557C16.0562 24.8792 16.4424 25.738 16.9901 26.4917L15.0266 28.4552C14.0123 27.184 13.3138 25.6496 13.0545 23.9693ZM18.8412 28.2367C19.626 28.7393 20.5061 29.0742 21.4264 29.2204V31.9965C19.7754 31.8124 18.2015 31.1986 16.8617 30.2164L18.8412 28.2367ZM23.9695 31.9457V29.1446C24.8793 28.944 25.7381 28.5579 26.4919 28.0103L28.4552 29.9736C27.184 30.9879 25.6497 31.6864 23.9695 31.9457ZM28.2369 26.159C28.7393 25.3742 29.0741 24.4941 29.2204 23.5738H31.9967C31.8124 25.2248 31.1986 26.7987 30.2165 28.1386L28.2369 26.159Z" fill="#E16426"/>
<path d="M45.7498 25.966L40.2108 23.2902L45.4578 20.8362C45.8649 20.6453 46.1038 20.1418 45.8224 19.6725L45.2771 19.0413C44.9252 18.6563 44.5431 18.3757 44.0788 18.5584L40.1803 20.0279C40.0952 20.06 40.002 20.0639 39.9144 20.0392L38.4053 19.6117C38.3503 19.5961 38.2922 19.5951 38.2367 19.6088C38.1812 19.6225 38.1302 19.6504 38.0887 19.6897L36.4745 21.222C36.1211 19.1906 35.2936 17.2712 34.0591 15.6197L36.419 15.6012C36.4689 15.6008 36.5178 15.5871 36.5607 15.5615C36.6036 15.5359 36.6389 15.4994 36.663 15.4557L37.4983 13.9404C37.5417 13.8616 37.6104 13.7996 37.6932 13.7645L41.5548 12.1179C41.7919 12.0169 41.9378 11.5242 41.8923 11.2046L41.7666 10.0515C41.6639 9.72029 41.1988 9.42884 40.9766 9.51093L35.1679 11.5356L37.143 6.08988C37.2958 5.66713 37.1087 5.14242 36.5779 5.00936L35.7459 4.94871C35.2249 4.92551 34.7563 4.99705 34.5571 5.45461L32.8395 9.25025C32.802 9.33314 32.7389 9.40182 32.6595 9.44624L31.2902 10.2109C31.2403 10.2388 31.1985 10.2792 31.1689 10.3281C31.1393 10.3771 31.123 10.4329 31.1215 10.49L31.0634 12.7158C29.377 11.5288 27.434 10.7568 25.3927 10.4628L27.0497 8.77986C27.0847 8.74428 27.1096 8.70001 27.1219 8.6516C27.1342 8.60319 27.1333 8.55238 27.1194 8.50441L26.6387 6.8424C26.6137 6.7559 26.6183 6.66352 26.6519 6.57996L28.2181 2.68518C28.3146 2.44612 28.0694 1.99436 27.811 1.80065L26.9067 1.07397C26.5998 0.912604 26.0648 1.03512 25.9658 1.25028L23.29 6.78949L20.836 1.54225C20.6451 1.13514 20.1416 0.896432 19.6723 1.17768L19.0411 1.72313C18.6561 2.07504 18.3756 2.45702 18.5584 2.92143L20.0277 6.81972C20.0599 6.90498 20.0638 6.99814 20.039 7.08568L19.6116 8.59494C19.596 8.64991 19.595 8.70801 19.6087 8.76349C19.6224 8.81898 19.6503 8.86994 19.6897 8.91134L21.2218 10.5255C19.1905 10.8789 17.2712 11.7064 15.6197 12.9408L15.601 10.5813C15.6007 10.5313 15.587 10.4823 15.5615 10.4394C15.5359 10.3964 15.4994 10.3611 15.4556 10.3369L13.9404 9.50179C13.8616 9.45835 13.7996 9.38979 13.7643 9.30703L12.1179 5.44512C12.0168 5.20817 11.5241 5.06227 11.2044 5.10797L10.0513 5.23348C9.72026 5.33631 9.42864 5.80125 9.51073 6.02344L11.5356 11.8323L6.08985 9.85722C5.66692 9.70429 5.14221 9.8915 5.00914 10.4224L4.9485 11.2543C4.9253 11.7752 4.99684 12.244 5.4544 12.443L9.25004 14.1603C9.333 14.1979 9.4017 14.2611 9.44604 14.3407L10.211 15.71C10.2676 15.8115 10.3738 15.8756 10.49 15.8786L12.7154 15.9366C11.5285 17.623 10.7567 19.566 10.4628 21.6071L8.77965 19.9504C8.74407 19.9154 8.6998 19.8904 8.65139 19.8782C8.60298 19.8659 8.55218 19.8667 8.5042 19.8806L6.84219 20.3614C6.75576 20.3865 6.66341 20.3818 6.57993 20.3482L2.68514 18.7818C2.4459 18.6856 1.99432 18.9309 1.80061 19.1891L1.07393 20.0935C0.912562 20.4002 1.03526 20.9351 1.25041 21.0343L6.78928 23.71L1.54221 26.1639C1.1351 26.355 0.89639 26.8582 1.17764 27.3276L1.72309 27.959C2.075 28.3438 2.45715 28.6245 2.92139 28.4418L6.81987 26.9723C6.90505 26.9403 6.99824 26.9363 7.08582 26.9611L8.59491 27.3886C8.7067 27.4202 8.82694 27.3903 8.91131 27.3105L10.5257 25.7782C10.8791 27.8096 11.7065 29.7289 12.9409 31.3804L10.5812 31.399C10.5313 31.3994 10.4824 31.4131 10.4395 31.4387C10.3966 31.4643 10.3613 31.5008 10.3373 31.5446L9.50194 33.0596C9.45834 33.1385 9.38968 33.2005 9.30682 33.2359L5.44543 34.8823C5.20813 34.9834 5.06223 35.4761 5.10793 35.7956L5.23344 36.9488C5.33627 37.2799 5.80121 37.5714 6.02358 37.4893L11.8323 35.4646L9.85719 40.9103C9.70426 41.3331 9.89147 41.8578 10.4223 41.9909L11.2543 42.0515C11.7751 42.0747 12.2439 42.0032 12.4429 41.5456L14.1603 37.75C14.198 37.6671 14.2612 37.5984 14.3407 37.554L15.71 36.7892C15.8114 36.7324 15.8756 36.6264 15.8786 36.5102L15.9366 34.2845C17.623 35.4715 19.566 36.2435 21.6073 36.5374L19.9504 38.2204C19.9154 38.256 19.8905 38.3003 19.8783 38.3487C19.8661 38.3971 19.8669 38.4479 19.8808 38.4958L20.3615 40.1578C20.3865 40.2443 20.3818 40.3367 20.3482 40.4203L18.7818 44.315C18.6856 44.5541 18.9308 45.0059 19.1892 45.1996L20.0933 45.9261C20.4 46.0874 20.9349 45.9648 21.0342 45.7498L23.7096 40.2106L26.1641 45.4576C26.355 45.8649 26.8582 46.1036 27.3277 45.8224L27.9588 45.2769C28.3436 44.925 28.6245 44.5429 28.4417 44.0786L26.9721 40.1803C26.9401 40.0951 26.9362 40.0019 26.9611 39.9144L27.3882 38.4051C27.4199 38.2933 27.3903 38.1731 27.3103 38.0887L25.7782 36.4743C27.8096 36.121 29.729 35.2935 31.3804 34.0589L31.399 36.419C31.3997 36.5206 31.4553 36.6139 31.5444 36.6629L33.0596 37.4983C33.1384 37.5417 33.2002 37.6102 33.2357 37.693L34.8821 41.5548C34.9832 41.7919 35.4759 41.9378 35.7957 41.8921L36.9486 41.7666C37.2798 41.6637 37.5712 41.1988 37.4893 40.9766L35.4643 35.1678L40.91 37.1428C41.3331 37.2958 41.8578 37.1086 41.9909 36.5777L42.0515 35.7457C42.0747 35.2249 42.003 34.7561 41.5456 34.5571L37.75 32.8395C37.667 32.802 37.5983 32.7388 37.5538 32.6594L36.789 31.29C36.7611 31.2401 36.7207 31.1983 36.6718 31.1687C36.6229 31.1392 36.5672 31.1228 36.51 31.1213L34.2843 31.0633C35.4713 29.3769 36.2432 27.4341 36.5373 25.3929L38.2204 27.0497C38.2559 27.0847 38.3002 27.1096 38.3486 27.1218C38.3969 27.1341 38.4477 27.1333 38.4957 27.1194L40.1578 26.6387C40.2443 26.6136 40.3366 26.6182 40.4201 26.6519L44.3149 28.2181C44.554 28.3144 45.0057 28.0692 45.1994 27.811L45.9259 26.9067C46.0875 26.6 45.9648 26.0651 45.7498 25.966ZM32.9457 22.0309H30.1446C29.9442 21.1209 29.558 20.2621 29.0103 19.5083L30.9736 17.5448C31.9879 18.8163 32.6864 20.3508 32.9457 22.0309ZM27.159 17.7635C26.3743 17.2609 25.4941 16.926 24.5738 16.7798V14.0037C26.2248 14.1878 27.7988 14.8016 29.1386 15.7839L27.159 17.7635ZM26.818 23.5001C26.818 25.3325 25.3326 26.818 23.5001 26.818C21.6678 26.818 20.1822 25.3325 20.1822 23.5001C20.1822 21.6678 21.6676 20.1822 23.5001 20.1822C25.3326 20.1822 26.818 21.6676 26.818 23.5001ZM22.0309 14.0545V16.8556C21.121 17.0561 20.2623 17.4423 19.5085 17.9899L17.545 16.0264C18.8164 15.0122 20.3505 14.3138 22.0309 14.0545ZM17.7635 19.8412C17.261 20.626 16.9262 21.5061 16.78 22.4264H14.0037C14.188 20.7754 14.8017 19.2014 15.7838 17.8614L17.7635 19.8412ZM14.0545 24.9693H16.8557C17.0562 25.8792 17.4424 26.738 17.9901 27.4917L16.0266 29.4552C15.0123 28.184 14.3138 26.6496 14.0545 24.9693ZM19.8412 29.2367C20.626 29.7393 21.5061 30.0742 22.4264 30.2204V32.9965C20.7754 32.8124 19.2015 32.1986 17.8617 31.2164L19.8412 29.2367ZM24.9695 32.9457V30.1446C25.8793 29.944 26.7381 29.5579 27.4919 29.0103L29.4552 30.9736C28.184 31.9879 26.6497 32.6864 24.9695 32.9457ZM29.2369 27.159C29.7393 26.3742 30.0741 25.4941 30.2204 24.5738H32.9967C32.8124 26.2248 32.1986 27.7987 31.2165 29.1386L29.2369 27.159Z" fill="#1E0E04"/>
</svg>
