<svg width="46" height="46" viewBox="0 0 46 46" fill="none" xmlns="http://www.w3.org/2000/svg">
<path d="M18.487 22.4533C18.487 20.2346 20.2892 18.4323 22.508 18.4323C24.7268 18.4323 26.529 20.2346 26.529 22.4533C26.529 24.6721 24.7268 26.4743 22.508 26.4743C20.2892 26.4743 18.487 24.6721 18.487 22.4533ZM45 22.4533C45 25.2168 41.7399 28.0123 36.4854 29.7504C36.2131 29.8385 35.9327 29.9266 35.6444 30.0147C35.7485 30.4233 35.8366 30.8238 35.9167 31.2162C36.4053 33.6993 36.4854 36.0062 36.141 37.8805C35.7725 39.875 34.9395 41.2928 33.738 41.9897C33.1372 42.3421 32.4243 42.5183 31.6314 42.5183C29.4526 42.5183 26.6892 41.2047 23.8056 38.7216C23.3971 38.3691 22.9966 38.0007 22.5881 37.6082C22.2757 37.9126 21.9633 38.2009 21.6509 38.4733C19.7446 40.1393 17.7821 41.3569 15.9879 41.9897C15.0507 42.3261 14.1696 42.4943 13.3847 42.4943C12.5676 42.4943 11.8467 42.3181 11.238 41.9656C8.93912 40.636 8.13813 36.8072 9.10733 31.7209C9.20345 31.2002 9.3236 30.6636 9.45977 30.1189C9.03524 29.9987 8.62673 29.8706 8.23425 29.7344C5.83927 28.9174 3.80473 27.828 2.35493 26.5865C0.817017 25.2728 0 23.8391 0 22.4533C0 19.794 2.91563 17.1908 7.80972 15.4927C8.34639 15.3084 8.90708 15.1322 9.4838 14.964C9.35564 14.4594 9.2435 13.9628 9.14738 13.4742C8.67479 11.0552 8.58668 8.83639 8.89106 7.05017C9.22748 5.10375 10.0205 3.71803 11.1979 3.03718C13.5849 1.65145 17.646 3.07723 21.7791 6.7538C22.0274 6.97808 22.2757 7.21037 22.532 7.45067C22.9085 7.09022 23.285 6.74579 23.6534 6.41738C25.5117 4.79937 27.3941 3.6139 29.0922 2.98912C30.9425 2.30827 32.5445 2.30827 33.714 2.98111C36.1089 4.35882 36.9019 8.58809 35.7805 14.0028C35.7164 14.3312 35.6363 14.6596 35.5562 14.9961C36.0529 15.1402 36.5335 15.2924 36.998 15.4526C39.3289 16.2536 41.2914 17.2949 42.6851 18.4484C44.199 19.7139 45 21.0997 45 22.4533ZM23.8777 8.82037C25.1593 10.1981 26.4409 11.8001 27.6744 13.5623C29.7971 13.7625 31.8236 14.0829 33.6979 14.5155C33.77 14.2111 33.8421 13.9147 33.8982 13.6183C34.9475 8.516 34.0424 5.39211 32.7528 4.64718C32.0959 4.27071 31.0306 4.31877 29.749 4.79136C28.2672 5.33604 26.5931 6.40137 24.911 7.86719C24.5666 8.16356 24.2221 8.48396 23.8777 8.82037ZM11.8387 28.7332C13.1203 29.0135 14.5061 29.2378 15.9799 29.398C15.4993 28.645 15.0267 27.8761 14.5701 27.0911C14.1216 26.3222 13.697 25.5452 13.2965 24.7682C12.7278 26.1139 12.2312 27.4516 11.8387 28.7332ZM14.5701 17.9117C15.0187 17.1427 15.4753 16.3818 15.9478 15.6449C14.5221 15.8211 13.1524 16.0614 11.8628 16.3417C12.2552 17.6073 12.7358 18.9129 13.2965 20.2426C13.697 19.4656 14.1216 18.6887 14.5701 17.9117ZM16.2362 26.1299C16.9331 27.3314 17.67 28.5009 18.4389 29.6143C19.7446 29.6943 21.1063 29.7424 22.508 29.7424C23.9178 29.7424 25.2955 29.6943 26.6251 29.5982C27.354 28.5009 28.0749 27.3394 28.7878 26.1139C29.4927 24.8964 30.1415 23.6709 30.7262 22.4694C30.1415 21.2919 29.5007 20.0904 28.7878 18.8649C28.091 17.6554 27.362 16.5019 26.6171 15.3966C25.2795 15.2924 23.9017 15.2444 22.508 15.2444C21.1303 15.2444 19.7526 15.3004 18.4069 15.4046C17.654 16.5099 16.9171 17.6714 16.2282 18.8729C15.5393 20.0664 14.8985 21.2839 14.3138 22.5014C14.8985 23.7109 15.5393 24.9284 16.2362 26.1299ZM29.0762 29.3659C30.558 29.1897 31.9678 28.9494 33.2734 28.6531C32.8729 27.3955 32.3683 26.0658 31.7595 24.6881C31.351 25.4811 30.9105 26.2821 30.4539 27.0751C29.9973 27.8601 29.5408 28.629 29.0762 29.3659ZM33.1773 16.3658C31.8797 16.0694 30.502 15.8291 29.0682 15.6449C29.5327 16.3738 29.9893 17.1267 30.4379 17.8957C30.8944 18.6887 31.327 19.4736 31.7355 20.2426C32.3042 18.9129 32.7928 17.6073 33.1773 16.3658ZM19.8567 13.3861C20.7298 13.346 21.6109 13.322 22.5 13.322C23.4051 13.322 24.2942 13.346 25.1833 13.3861C24.3102 12.2246 23.4211 11.1513 22.532 10.1901C21.6269 11.1593 20.7298 12.2326 19.8567 13.3861ZM11.0377 13.1057C11.1258 13.5623 11.23 14.0188 11.3501 14.4914C13.2164 14.0669 15.243 13.7545 17.3656 13.5543C18.5991 11.8161 19.8887 10.2221 21.1944 8.81237C20.9701 8.5961 20.7458 8.38784 20.5215 8.1956C16.6127 4.73529 13.4567 3.95833 12.1671 4.70325C11.5103 5.07972 11.0217 6.03291 10.7894 7.37858C10.5251 8.93251 10.6052 10.919 11.0377 13.1057ZM12.1912 22.5094C11.3021 20.571 10.5571 18.6566 9.99644 16.8223C9.45977 16.9745 8.94713 17.1347 8.45052 17.3109C3.94891 18.8809 1.9304 21.0276 1.9304 22.4613C1.9304 23.9512 4.1011 26.2981 8.85902 27.9241C9.21947 28.0443 9.58793 28.1644 9.97241 28.2766C10.5411 26.4103 11.286 24.4719 12.1912 22.5094ZM21.2424 36.2385C19.9208 34.8287 18.6232 33.2187 17.3816 31.4646C15.1869 31.2883 13.1524 30.992 11.3261 30.5835C11.1979 31.0961 11.0938 31.5927 10.9977 32.0733C10.1086 36.7591 10.9656 39.5787 12.1992 40.2915C13.4888 41.0365 16.6047 40.3316 20.3934 37.0155C20.6657 36.7752 20.9541 36.5108 21.2424 36.2385ZM25.2234 31.6007C24.3343 31.6408 23.4211 31.6648 22.508 31.6648C21.6109 31.6648 20.7378 31.6488 19.8807 31.6167C20.7698 32.7862 21.675 33.8675 22.5881 34.8528C23.4612 33.8836 24.3503 32.8022 25.2234 31.6007ZM34.0424 31.5927C33.9703 31.2323 33.8902 30.8718 33.7941 30.4953C31.9357 30.9279 29.8852 31.2403 27.7065 31.4325C26.4649 33.2348 25.1913 34.8448 23.9338 36.2225C24.3102 36.5909 24.6947 36.9354 25.0632 37.2558C28.6757 40.3636 31.5432 41.0365 32.7848 40.3156C34.0744 39.5787 35.0196 36.5269 34.0424 31.5927ZM43.0856 22.4533C43.0856 21.6924 42.5089 20.7953 41.4596 19.9222C40.2501 18.9129 38.4879 17.9918 36.3813 17.2629C35.9487 17.1187 35.5002 16.9745 35.0436 16.8384C34.4909 18.6246 33.754 20.5229 32.8489 22.4613C33.7941 24.4558 34.563 26.3702 35.1237 28.1564C35.38 28.0763 35.6363 27.9962 35.8847 27.9161C40.8268 26.2821 43.0856 23.9352 43.0856 22.4533Z" fill="#FF6B12"/>
<path d="M19.487 23.4533C19.487 21.2346 21.2892 19.4323 23.508 19.4323C25.7268 19.4323 27.529 21.2346 27.529 23.4533C27.529 25.6721 25.7268 27.4743 23.508 27.4743C21.2892 27.4743 19.487 25.6721 19.487 23.4533ZM46 23.4533C46 26.2168 42.7399 29.0123 37.4854 30.7504C37.2131 30.8385 36.9327 30.9266 36.6444 31.0147C36.7485 31.4233 36.8366 31.8238 36.9167 32.2162C37.4053 34.6993 37.4854 37.0062 37.141 38.8805C36.7725 40.875 35.9395 42.2928 34.738 42.9897C34.1372 43.3421 33.4243 43.5183 32.6314 43.5183C30.4526 43.5183 27.6892 42.2047 24.8056 39.7216C24.3971 39.3691 23.9966 39.0007 23.5881 38.6082C23.2757 38.9126 22.9633 39.2009 22.6509 39.4733C20.7446 41.1393 18.7821 42.3569 16.9879 42.9897C16.0507 43.3261 15.1696 43.4943 14.3847 43.4943C13.5676 43.4943 12.8467 43.3181 12.238 42.9656C9.93912 41.636 9.13813 37.8072 10.1073 32.7209C10.2035 32.2002 10.3236 31.6636 10.4598 31.1189C10.0352 30.9987 9.62673 30.8706 9.23425 30.7344C6.83927 29.9174 4.80473 28.828 3.35493 27.5865C1.81702 26.2728 1 24.8391 1 23.4533C1 20.794 3.91563 18.1908 8.80972 16.4927C9.34639 16.3084 9.90708 16.1322 10.4838 15.964C10.3556 15.4594 10.2435 14.9628 10.1474 14.4742C9.6748 12.0552 9.58669 9.83639 9.89106 8.05017C10.2275 6.10375 11.0205 4.71803 12.1979 4.03718C14.5849 2.65145 18.646 4.07723 22.7791 7.7538C23.0274 7.97808 23.2757 8.21037 23.532 8.45067C23.9085 8.09022 24.285 7.74579 24.6534 7.41738C26.5117 5.79937 28.3941 4.6139 30.0922 3.98912C31.9425 3.30827 33.5445 3.30827 34.714 3.98111C37.1089 5.35882 37.9019 9.58809 36.7805 15.0028C36.7164 15.3312 36.6363 15.6596 36.5562 15.9961C37.0529 16.1402 37.5335 16.2924 37.998 16.4526C40.3289 17.2536 42.2914 18.2949 43.6851 19.4484C45.199 20.7139 46 22.0997 46 23.4533ZM24.8777 9.82037C26.1593 11.1981 27.4409 12.8001 28.6744 14.5623C30.7971 14.7625 32.8236 15.0829 34.6979 15.5155C34.77 15.2111 34.8421 14.9147 34.8982 14.6183C35.9475 9.516 35.0424 6.39211 33.7528 5.64718C33.0959 5.27071 32.0306 5.31877 30.749 5.79136C29.2672 6.33604 27.5931 7.40137 25.911 8.86719C25.5666 9.16356 25.2221 9.48396 24.8777 9.82037ZM12.8387 29.7332C14.1203 30.0135 15.5061 30.2378 16.9799 30.398C16.4993 29.645 16.0267 28.8761 15.5701 28.0911C15.1216 27.3222 14.697 26.5452 14.2965 25.7682C13.7278 27.1139 13.2312 28.4516 12.8387 29.7332ZM15.5701 18.9117C16.0187 18.1427 16.4753 17.3818 16.9478 16.6449C15.5221 16.8211 14.1524 17.0614 12.8628 17.3417C13.2552 18.6073 13.7358 19.9129 14.2965 21.2426C14.697 20.4656 15.1216 19.6887 15.5701 18.9117ZM17.2362 27.1299C17.9331 28.3314 18.67 29.5009 19.4389 30.6143C20.7446 30.6943 22.1063 30.7424 23.508 30.7424C24.9178 30.7424 26.2955 30.6943 27.6251 30.5982C28.354 29.5009 29.0749 28.3394 29.7878 27.1139C30.4927 25.8964 31.1415 24.6709 31.7262 23.4694C31.1415 22.2919 30.5007 21.0904 29.7878 19.8649C29.091 18.6554 28.362 17.5019 27.6171 16.3966C26.2795 16.2924 24.9017 16.2444 23.508 16.2444C22.1303 16.2444 20.7526 16.3004 19.4069 16.4046C18.654 17.5099 17.9171 18.6714 17.2282 19.8729C16.5393 21.0664 15.8985 22.2839 15.3138 23.5014C15.8985 24.7109 16.5393 25.9284 17.2362 27.1299ZM30.0762 30.3659C31.558 30.1897 32.9678 29.9494 34.2734 29.6531C33.8729 28.3955 33.3683 27.0658 32.7595 25.6881C32.351 26.4811 31.9105 27.2821 31.4539 28.0751C30.9973 28.8601 30.5408 29.629 30.0762 30.3659ZM34.1773 17.3658C32.8797 17.0694 31.502 16.8291 30.0682 16.6449C30.5327 17.3738 30.9893 18.1267 31.4379 18.8957C31.8944 19.6887 32.327 20.4736 32.7355 21.2426C33.3042 19.9129 33.7928 18.6073 34.1773 17.3658ZM20.8567 14.3861C21.7298 14.346 22.6109 14.322 23.5 14.322C24.4051 14.322 25.2942 14.346 26.1833 14.3861C25.3102 13.2246 24.4211 12.1513 23.532 11.1901C22.6269 12.1593 21.7298 13.2326 20.8567 14.3861ZM12.0377 14.1057C12.1258 14.5623 12.23 15.0188 12.3501 15.4914C14.2164 15.0669 16.243 14.7545 18.3656 14.5543C19.5991 12.8161 20.8888 11.2221 22.1944 9.81237C21.9701 9.5961 21.7458 9.38784 21.5215 9.1956C17.6127 5.73529 14.4567 4.95833 13.1671 5.70325C12.5103 6.07972 12.0217 7.03291 11.7894 8.37858C11.5251 9.93251 11.6052 11.919 12.0377 14.1057ZM13.1912 23.5094C12.3021 21.571 11.5571 19.6566 10.9964 17.8223C10.4598 17.9745 9.94713 18.1347 9.45052 18.3109C4.94891 19.8809 2.9304 22.0276 2.9304 23.4613C2.9304 24.9512 5.1011 27.2981 9.85902 28.9241C10.2195 29.0443 10.5879 29.1644 10.9724 29.2766C11.5411 27.4103 12.286 25.4719 13.1912 23.5094ZM22.2424 37.2385C20.9208 35.8287 19.6232 34.2187 18.3816 32.4646C16.1869 32.2883 14.1524 31.992 12.3261 31.5835C12.1979 32.0961 12.0938 32.5927 11.9977 33.0733C11.1086 37.7591 11.9656 40.5787 13.1992 41.2915C14.4888 42.0365 17.6047 41.3316 21.3934 38.0155C21.6657 37.7752 21.9541 37.5108 22.2424 37.2385ZM26.2234 32.6007C25.3343 32.6408 24.4211 32.6648 23.508 32.6648C22.6109 32.6648 21.7378 32.6488 20.8807 32.6167C21.7698 33.7862 22.675 34.8675 23.5881 35.8528C24.4612 34.8836 25.3503 33.8022 26.2234 32.6007ZM35.0424 32.5927C34.9703 32.2323 34.8902 31.8718 34.7941 31.4953C32.9357 31.9279 30.8852 32.2403 28.7065 32.4325C27.4649 34.2348 26.1913 35.8448 24.9338 37.2225C25.3102 37.5909 25.6947 37.9354 26.0632 38.2558C29.6757 41.3636 32.5432 42.0365 33.7848 41.3156C35.0744 40.5787 36.0196 37.5269 35.0424 32.5927ZM44.0856 23.4533C44.0856 22.6924 43.5089 21.7953 42.4596 20.9222C41.2501 19.9129 39.4879 18.9918 37.3813 18.2629C36.9487 18.1187 36.5002 17.9745 36.0436 17.8384C35.4909 19.6246 34.754 21.5229 33.8489 23.4613C34.7941 25.4558 35.563 27.3702 36.1237 29.1564C36.38 29.0763 36.6363 28.9962 36.8847 28.9161C41.8268 27.2821 44.0856 24.9352 44.0856 23.4533Z" fill="#1E0E04"/>
</svg>
