<svg width="49" height="46" viewBox="0 0 49 46" fill="none" xmlns="http://www.w3.org/2000/svg">
<path d="M32.8437 31.4276C34.593 31.2467 35.92 29.7386 35.8597 27.929C35.7994 26.1193 34.2914 24.6716 32.4818 24.6716H32.3612C30.4913 24.7319 29.0436 26.3003 29.1039 28.1702C29.1643 29.0751 29.5262 29.8592 30.069 30.4021C28.0182 34.4437 24.8816 37.3995 20.1767 39.8727C16.9797 41.5617 13.6621 42.1649 10.3446 41.7426C7.63019 41.3807 5.51901 40.1743 4.19198 38.1836C2.26175 35.2279 2.0808 32.0308 3.70942 28.8338C4.85549 26.5416 6.66508 24.8525 7.81115 24.008C7.56987 23.2239 7.20796 21.8968 7.027 20.9316C-1.71933 27.2654 -0.814541 35.8311 1.83952 39.8727C3.83006 42.8887 7.87147 44.7587 12.3351 44.7587C13.5415 44.7587 14.7479 44.6381 15.9543 44.3365C23.6752 42.8284 29.5262 38.244 32.8437 31.4276ZM43.46 23.9477C38.8757 18.5791 32.1199 15.6233 24.399 15.6233H23.4339C22.891 14.5375 21.745 13.8137 20.4782 13.8137H20.3576C18.4877 13.874 17.04 15.4424 17.1004 17.3123C17.1607 19.122 18.6687 20.5697 20.4782 20.5697H20.5989C21.9259 20.5094 23.072 19.6649 23.5545 18.5188H24.6403C29.2246 18.5188 33.5676 19.8458 37.4883 22.4397C40.5043 24.4303 42.6758 27.0241 43.8822 30.1609C44.9077 32.6944 44.8473 35.1676 43.7616 37.2788C42.0726 40.4759 39.2376 42.2252 35.4978 42.2252C33.085 42.2252 30.7929 41.5013 29.5865 40.9584C28.923 41.5617 27.7166 42.5268 26.8721 43.13C29.4659 44.3365 32.1199 45 34.6533 45C40.444 45 44.7267 41.8029 46.3553 38.6059C48.1046 35.1072 47.9839 29.0751 43.46 23.9477ZM12.8177 32.4531C12.878 34.2627 14.386 35.7105 16.1956 35.7105H16.3162C18.1861 35.6501 19.6338 34.0818 19.5735 32.2118C19.5131 30.4021 18.0051 28.9544 16.1956 28.9544H16.0749C15.9543 28.9544 15.7733 28.9544 15.6527 29.0147C13.1796 24.9129 12.1542 20.4491 12.5161 15.6233C12.7573 12.004 13.9637 8.86729 16.0749 6.27346C17.8242 4.04155 21.2021 2.95576 23.4942 2.89544C29.8881 2.7748 32.6025 10.7373 32.7834 13.9343C33.5676 14.1153 34.8946 14.5375 35.7994 14.8391C35.0756 5.06702 29.0436 0 23.2529 0C17.8242 0 12.8177 3.92091 10.8271 9.7118C8.05243 17.433 9.86201 24.8525 13.2399 30.7038C12.9383 31.126 12.7573 31.7895 12.8177 32.4531Z" fill="#FF6B12"/>
<path d="M33.8437 32.4276C35.593 32.2467 36.92 30.7386 36.8597 28.929C36.7994 27.1193 35.2914 25.6716 33.4818 25.6716H33.3612C31.4913 25.7319 30.0436 27.3003 30.1039 29.1702C30.1643 30.0751 30.5262 30.8592 31.069 31.4021C29.0182 35.4437 25.8816 38.3995 21.1767 40.8727C17.9797 42.5617 14.6621 43.1649 11.3446 42.7426C8.63019 42.3807 6.51901 41.1743 5.19198 39.1836C3.26175 36.2279 3.0808 33.0308 4.70942 29.8338C5.85549 27.5416 7.66508 25.8525 8.81115 25.008C8.56987 24.2239 8.20796 22.8968 8.027 21.9316C-0.719333 28.2654 0.185459 36.8311 2.83952 40.8727C4.83006 43.8887 8.87147 45.7587 13.3351 45.7587C14.5415 45.7587 15.7479 45.6381 16.9543 45.3365C24.6752 43.8284 30.5262 39.244 33.8437 32.4276ZM44.46 24.9477C39.8757 19.5791 33.1199 16.6233 25.399 16.6233H24.4339C23.891 15.5375 22.745 14.8137 21.4782 14.8137H21.3576C19.4877 14.874 18.04 16.4424 18.1004 18.3123C18.1607 20.122 19.6687 21.5697 21.4782 21.5697H21.5989C22.9259 21.5094 24.072 20.6649 24.5545 19.5188H25.6403C30.2246 19.5188 34.5676 20.8458 38.4883 23.4397C41.5043 25.4303 43.6758 28.0241 44.8822 31.1609C45.9077 33.6944 45.8473 36.1676 44.7616 38.2788C43.0726 41.4759 40.2376 43.2252 36.4978 43.2252C34.085 43.2252 31.7929 42.5013 30.5865 41.9584C29.923 42.5617 28.7166 43.5268 27.8721 44.13C30.4659 45.3365 33.1199 46 35.6533 46C41.444 46 45.7267 42.8029 47.3553 39.6059C49.1046 36.1072 48.9839 30.0751 44.46 24.9477ZM13.8177 33.4531C13.878 35.2627 15.386 36.7105 17.1956 36.7105H17.3162C19.1861 36.6501 20.6338 35.0818 20.5735 33.2118C20.5131 31.4021 19.0051 29.9544 17.1956 29.9544H17.0749C16.9543 29.9544 16.7733 29.9544 16.6527 30.0147C14.1796 25.9129 13.1542 21.4491 13.5161 16.6233C13.7573 13.004 14.9637 9.86729 17.0749 7.27346C18.8242 5.04155 22.2021 3.95576 24.4942 3.89544C30.8881 3.7748 33.6025 11.7373 33.7834 14.9343C34.5676 15.1153 35.8946 15.5375 36.7994 15.8391C36.0756 6.06702 30.0436 1 24.2529 1C18.8242 1 13.8177 4.92091 11.8271 10.7118C9.05243 18.433 10.862 25.8525 14.2399 31.7038C13.9383 32.126 13.7573 32.7895 13.8177 33.4531Z" fill="#1E0E04"/>
</svg>
