<svg width="82" height="49" viewBox="0 0 82 49" fill="none" xmlns="http://www.w3.org/2000/svg">
<path d="M58.342 3.35907L58.0198 5.03862C57.5215 8.22161 57.7019 9.13226 59.0679 10.3135L60.3866 11.4046L59.0206 17.4957C58.2045 21.1297 57.2036 24.1752 56.5679 25.1761C56.0224 26.0395 55.3866 27.311 55.2492 27.9939C55.0215 28.8101 54.2483 29.6305 53.067 30.3565C52.0232 30.9493 49.9743 32.5386 48.5224 33.8144C47.3626 34.8582 46.5636 35.4982 46.1297 35.7732L44.7122 36.8943C44.2569 37.6245 43.9992 38.213 43.9004 38.6598C43.8016 39.1194 43.8574 39.4244 44.0035 39.6477C44.1452 39.8625 44.3901 40.0129 44.7251 40.1074C45.1217 40.2003 45.53 40.2336 45.9364 40.2061C46.856 40.1433 47.7661 39.982 48.6512 39.725C48.9519 39.6434 49.1882 39.5661 49.3943 39.4974C49.7122 39.1065 50.4468 38.3677 51.7483 37.0833C55.2019 33.6769 56.5206 31.8127 55.159 32.3153C54.6564 32.4957 54.884 32.0403 55.7474 31.1297C57.5687 29.3556 58.6126 26.6752 60.7947 18.2689C62.5215 11.6323 62.5215 11.5378 63.793 11.5378C64.3901 11.5378 66.0782 11.6409 66.0782 11.6409V3.35907H58.342ZM64.8325 16.9544C64.5576 16.9544 64.1023 17.3668 63.8316 17.8221C63.3334 18.6383 63.9218 19.1366 71.4218 23.8187C75.8763 26.6409 79.4674 29.0464 79.3772 29.2311C79.287 29.3642 75.6487 31.7311 71.2887 34.4587C63.3763 39.3642 63.3334 39.4115 64.0593 40.4123C64.97 41.5936 64.0593 42.0017 74.3299 35.5927L81.787 30.8204V27.2293L73.4665 22.0919C68.9691 19.274 65.0602 17.0017 64.8325 16.9544ZM43.0413 17.5558C41.787 17.5472 39.0894 19.4587 31.0138 26.0524C30.6658 26.8814 30.6358 27.4527 30.7947 27.8221C30.8978 28.0756 31.0868 28.2517 31.3488 28.3805C31.6065 28.5094 31.9416 28.5867 32.311 28.6168C33.0456 28.6812 33.9132 28.5653 34.6134 28.4278L35.0859 28.3204C35.2477 28.1035 35.46 27.9295 35.7045 27.8135C36.2028 27.5386 38.2947 25.6314 40.3866 23.5867C44.0679 19.8582 44.9313 18.1744 43.4322 17.6288C43.3092 17.5799 43.1779 17.5551 43.0456 17.5558H43.0413ZM52.4742 20.146C51.3703 20.1761 49.3815 21.4561 45.9751 24.1752C44.2655 25.5627 43.183 26.3101 42.6031 26.4647L40.3523 28.2431C39.506 29.7895 39.3815 30.7474 39.6048 31.2757C39.6607 31.4061 39.7419 31.524 39.8436 31.6228C39.9454 31.7216 40.0657 31.7993 40.1976 31.8513C40.5258 31.9809 40.8757 32.0465 41.2285 32.0446C42.0717 32.0356 42.9097 31.9128 43.72 31.6795C44.1422 31.5662 44.5593 31.4343 44.97 31.2843L45.0945 31.2328L45.3222 31.1125C45.7517 30.5584 46.7397 29.5146 47.9768 28.3118C51.8858 24.5403 53.8832 21.8599 53.4751 20.8591C53.2904 20.3737 52.9725 20.1288 52.4742 20.146ZM42.0619 24.7852C41.744 24.8195 41.031 25.3694 39.7466 26.4948C37.8909 28.1357 35.8677 29.0807 35.1675 28.6598C35.0048 28.6965 34.8416 28.7309 34.6779 28.7628C33.9648 28.9046 33.0756 29.0206 32.2809 28.9561C31.9065 28.9335 31.5395 28.8417 31.1985 28.6855C30.8768 28.5385 30.6201 28.2787 30.4768 27.9553C30.3179 27.5687 30.3179 27.0876 30.4983 26.4733L27.7062 28.7671L21.3875 33.9948V42.4699L42.0919 26.1598C42.0879 25.9812 42.1111 25.803 42.1607 25.6314C42.3196 25.0558 42.311 24.7637 42.0619 24.7895V24.7852ZM50.9708 27.53C50.6572 27.53 50.1332 27.9725 49.2956 28.8616C48.1572 30.0773 46.366 31.2543 45.4167 31.4948L45.2706 31.5721C45.1148 31.6365 44.9572 31.6966 44.7981 31.7525C44.5404 31.8384 44.2053 31.9415 43.8187 32.0446C43.0456 32.2551 42.0834 32.4484 41.2242 32.4269C40.8192 32.4264 40.4181 32.3477 40.043 32.195C39.6894 32.0492 39.4061 31.7721 39.2526 31.4218C39.0035 30.8247 39.1023 29.9871 39.6478 28.7972L21.3832 43.183V48.3591H29.4072L46.4261 34.9914C46.8686 34.5017 47.5344 33.8316 48.4322 32.9939C50.8377 30.7646 51.3832 29.9957 51.3832 28.8573C51.3832 27.9725 51.2844 27.5257 50.9708 27.5257V27.53ZM55.0215 35.9063L53.5653 37.3582C52.7492 38.1314 51.293 39.085 50.2964 39.4931L50.0988 39.579L50.0859 39.6005L50.043 39.6434C50.0043 39.6735 49.9871 39.6778 49.9571 39.6907C49.5592 39.8413 49.1551 39.9745 48.7457 40.0902C47.8356 40.3551 46.8994 40.5207 45.9536 40.5842C45.5064 40.6128 45.0575 40.5737 44.622 40.4682C44.2441 40.385 43.9104 40.1646 43.6856 39.8496C43.4794 39.5317 43.4193 39.1065 43.5352 38.5824C43.6275 38.2093 43.7645 37.8488 43.9433 37.5086L30.2105 48.3591H48.4751L50.6572 45.8591C53.6555 42.3625 55.0215 39.8625 55.0215 37.7233V35.9063Z" fill="black"/>
<path d="M17.0447 17.0031C16.817 17.0031 12.9081 19.3227 8.41065 22.0933L0 27.2308V30.8218L8.3634 36.0495C13.0026 38.9103 16.9115 41.2772 17.0919 41.2772C17.2723 41.2772 17.6375 40.8648 18.0026 40.3665C18.5481 39.5031 18.0885 39.138 10.4081 34.2754C3.09278 29.6835 2.31959 29.0478 3.04983 28.5495C3.50516 28.2316 6.95876 26.0925 10.6873 23.7772C19.1881 18.5495 18.7328 18.9103 18.0498 17.8193C17.7792 17.3682 17.3196 16.9602 17.049 17.0031H17.0447Z" fill="#FF6B12"/>
</svg>
