<svg width="198" height="204" viewBox="0 0 198 204" fill="none" xmlns="http://www.w3.org/2000/svg">
<path d="M159.2 98.6385L163.221 101.61L159.2 98.6385ZM13.5327 125.045C11.147 126.436 10.3404 129.497 11.731 131.883L34.3931 170.76C35.7838 173.146 38.8451 173.952 41.2308 172.562C43.6165 171.171 44.4231 168.11 43.0325 165.724L22.8884 131.167L57.4458 111.022C59.8315 109.632 60.6381 106.57 59.2475 104.185C57.8568 101.799 54.7955 100.992 52.4098 102.383L13.5327 125.045ZM122.778 13.661C121.119 18.378 121.118 18.3775 121.116 18.377C121.116 18.377 121.115 18.3767 121.115 18.3767C121.115 18.3766 121.116 18.377 121.118 18.3778C121.123 18.3793 121.132 18.3826 121.146 18.3875C121.173 18.3973 121.219 18.4138 121.282 18.4369C121.408 18.4832 121.604 18.5561 121.865 18.6558C122.386 18.8551 123.161 19.1607 124.144 19.5731C126.112 20.3988 128.897 21.6472 132.117 23.3196C138.599 26.6855 146.651 31.6704 153.367 38.2401C160.085 44.8114 165.181 52.6804 166.413 61.8567C167.631 70.9258 165.187 82.1222 155.179 95.6671L163.221 101.61C174.379 86.5095 177.967 72.7611 176.324 60.5259C174.695 48.398 168.039 38.6033 160.36 31.0915C152.679 23.5782 143.688 18.0607 136.726 14.445C133.225 12.6266 130.188 11.2644 128.014 10.3521C126.926 9.89552 126.051 9.55043 125.439 9.31619C125.132 9.19903 124.892 9.1095 124.723 9.04753C124.638 9.01654 124.571 8.99243 124.523 8.97519C124.499 8.96656 124.48 8.95966 124.465 8.95447C124.458 8.95187 124.452 8.94971 124.447 8.94797C124.444 8.9471 124.442 8.94612 124.44 8.94568C124.438 8.94481 124.436 8.94404 122.778 13.661ZM155.179 95.6671C135.431 122.392 101.686 129.974 71.6652 130.486C56.7855 130.74 43.1611 129.246 33.2438 127.681C28.292 126.9 24.282 126.105 21.5229 125.508C20.1437 125.209 19.0784 124.961 18.3655 124.789C18.0091 124.703 17.7409 124.636 17.5658 124.592C17.4782 124.57 17.414 124.553 17.3736 124.543C17.3534 124.537 17.3391 124.534 17.331 124.532C17.3269 124.53 17.3243 124.53 17.3233 124.53C17.3227 124.529 17.3231 124.53 17.3228 124.529C17.3235 124.53 17.3247 124.53 16.0507 129.365C14.7767 134.2 14.7786 134.2 14.7809 134.201C14.7821 134.201 14.7848 134.202 14.7873 134.203C14.7924 134.204 14.799 134.206 14.8072 134.208C14.8235 134.212 14.8459 134.218 14.8743 134.225C14.9311 134.24 15.0121 134.261 15.1166 134.287C15.3256 134.34 15.6287 134.415 16.021 134.51C16.8056 134.699 17.9475 134.965 19.4078 135.281C22.3274 135.913 26.5244 136.745 31.6856 137.559C41.9942 139.185 56.2197 140.751 71.8358 140.485C102.806 139.957 140.636 132.176 163.221 101.61L155.179 95.6671Z" fill="#FF6B12"/>
</svg>
