<svg width="36" height="35" viewBox="0 0 36 35" fill="none" xmlns="http://www.w3.org/2000/svg">
<g clip-path="url(#clip0)">
<path d="M17.9201 0C8.02442 0 0 8.02294 0 17.9201C0 25.8377 5.13467 32.555 12.2549 34.9245C13.1505 35.0904 13.4793 34.5358 13.4793 34.0625C13.4793 33.6351 13.4627 32.2235 13.4549 30.7261C8.46955 31.8101 7.41757 28.6118 7.41757 28.6118C6.60239 26.5404 5.42786 25.9897 5.42786 25.9897C3.80196 24.8775 5.55041 24.9003 5.55041 24.9003C7.34991 25.0267 8.29743 26.747 8.29743 26.747C9.89573 29.4866 12.4896 28.6946 13.5122 28.2367C13.6731 27.0785 14.1375 26.2879 14.65 25.8404C10.6697 25.3873 6.48547 23.8507 6.48547 16.9842C6.48547 15.0277 7.18551 13.4291 8.33185 12.1742C8.14579 11.7228 7.53241 9.90018 8.50545 7.43181C8.50545 7.43181 10.0103 6.95019 13.4348 9.26869C14.8642 8.87164 16.3972 8.67252 17.9201 8.6657C19.4431 8.67252 20.9773 8.87164 22.4094 9.26869C25.8297 6.95019 27.3325 7.43181 27.3325 7.43181C28.3079 9.90018 27.6942 11.7228 27.5081 12.1742C28.6572 13.4291 29.3524 15.0277 29.3524 16.9842C29.3524 23.867 25.1603 25.3825 21.1699 25.8262C21.8126 26.3823 22.3853 27.4728 22.3853 29.1447C22.3853 31.5425 22.3646 33.4722 22.3646 34.0625C22.3646 34.5393 22.6871 35.0981 23.5955 34.9222C30.7119 32.5499 35.84 25.8351 35.84 17.9201C35.84 8.02294 27.8168 0 17.9201 0ZM6.71168 25.5276C6.67221 25.6167 6.53214 25.6434 6.40454 25.5822C6.27457 25.5238 6.20156 25.4024 6.2437 25.3131C6.28228 25.2214 6.42264 25.1959 6.55232 25.2573C6.6826 25.3157 6.75678 25.4383 6.71168 25.5276ZM7.59315 26.3142C7.50769 26.3934 7.34062 26.3566 7.22726 26.2314C7.11004 26.1064 7.08808 25.9394 7.17473 25.8589C7.26287 25.7797 7.42489 25.8168 7.54241 25.9417C7.65962 26.0681 7.68247 26.234 7.59315 26.3142ZM8.19787 27.3205C8.08808 27.3968 7.90854 27.3252 7.79756 27.1659C7.68776 27.0065 7.68776 26.8154 7.79993 26.7389C7.91121 26.6623 8.08808 26.7311 8.20054 26.8893C8.31005 27.0513 8.31005 27.2424 8.19787 27.3205ZM9.22059 28.486C9.12237 28.5943 8.91316 28.5652 8.76003 28.4174C8.60335 28.2729 8.55973 28.0678 8.65825 27.9595C8.75766 27.8509 8.96806 27.8815 9.12237 28.0281C9.27786 28.1723 9.32534 28.3788 9.22059 28.486ZM10.5424 28.8794C10.499 29.0198 10.2975 29.0836 10.0946 29.0239C9.89188 28.9625 9.75923 28.7981 9.80018 28.6563C9.84232 28.515 10.0447 28.4485 10.2492 28.5123C10.4515 28.5735 10.5845 28.7367 10.5424 28.8794ZM12.0466 29.0463C12.0516 29.1941 11.8795 29.3166 11.6664 29.3193C11.4522 29.3241 11.2789 29.2045 11.2765 29.0591C11.2765 28.9098 11.4448 28.7884 11.659 28.7849C11.8721 28.7807 12.0466 28.8994 12.0466 29.0463ZM13.5243 28.9897C13.5498 29.1339 13.4017 29.282 13.1902 29.3214C12.9821 29.3594 12.7895 29.2704 12.7631 29.1274C12.7373 28.9796 12.8881 28.8315 13.0958 28.7932C13.3077 28.7564 13.4973 28.8431 13.5243 28.9897Z" fill="#161614"/>
</g>
<defs>
<clipPath id="clip0">
<rect width="35.84" height="35" fill="white"/>
</clipPath>
</defs>
</svg>
