<svg width="35" height="35" viewBox="0 0 35 35" fill="none" xmlns="http://www.w3.org/2000/svg">
<g clip-path="url(#clip0)">
<path d="M17.5 6.10352e-05C7.83494 6.10352e-05 0 7.83498 0 17.5C0 27.165 7.83494 34.9999 17.5 34.9999C27.165 34.9999 35 27.165 35 17.5C34.9999 7.83498 27.1649 6.10352e-05 17.5 6.10352e-05ZM12.8309 25.9604H8.98865V13.5471H12.8309V25.9604ZM10.8915 11.9214C9.63663 11.9214 8.61935 10.8959 8.61935 9.63098C8.61935 8.36593 9.63677 7.34043 10.8915 7.34043C12.1462 7.34043 13.1635 8.36593 13.1635 9.63098C13.1635 10.8959 12.1463 11.9214 10.8915 11.9214V11.9214ZM27.2299 25.9604H23.4063V19.4444C23.4063 17.6573 22.7274 16.6597 21.3143 16.6597C19.7763 16.6597 18.9729 17.6987 18.9729 19.4444V25.9604H15.2876V13.5471H18.9729V15.2189C18.9729 15.2189 20.0814 13.1684 22.7135 13.1684C25.3457 13.1684 27.23 14.7756 27.23 18.1005L27.2299 25.9604V25.9604Z" fill="url(#paint0_linear)"/>
</g>
<defs>
<linearGradient id="paint0_linear" x1="5.12561" y1="5.12566" x2="29.8743" y2="29.8744" gradientUnits="userSpaceOnUse">
<stop stop-color="#2489BE"/>
<stop offset="1" stop-color="#0575B3"/>
</linearGradient>
<clipPath id="clip0">
<rect width="35" height="35" fill="white"/>
</clipPath>
</defs>
</svg>
