<svg width="36" height="36" viewBox="0 0 36 36" fill="none" xmlns="http://www.w3.org/2000/svg">
<g clip-path="url(#clip0)">
<path d="M30.2065 30.5705H25.0236V22.4491C25.0236 20.5124 24.9842 18.0201 22.3227 18.0201C19.6204 18.0201 19.2077 20.1274 19.2077 22.3061V30.5705H14.0248V13.8697H19.0036V16.1461H19.0706C19.7663 14.8336 21.4579 13.4482 23.9852 13.4482C29.2367 13.4482 30.2079 16.9045 30.2079 21.4034V30.5705H30.2065ZM8.17106 11.5845C6.50273 11.5845 5.16252 10.2341 5.16252 8.57302C5.16252 6.91344 6.50419 5.56448 8.17106 5.56448C9.83356 5.56448 11.1811 6.91344 11.1811 8.57302C11.1811 10.2341 9.83211 11.5845 8.17106 11.5845ZM10.7698 30.5705H5.57231V13.8697H10.7698V30.5705ZM32.7994 0.74469H2.97065C1.54294 0.74469 0.387939 1.87344 0.387939 3.26615V33.2232C0.387939 34.6174 1.54294 35.7447 2.97065 35.7447H32.795C34.2213 35.7447 35.3879 34.6174 35.3879 33.2232V3.26615C35.3879 1.87344 34.2213 0.74469 32.795 0.74469H32.7994Z" fill="#0177B5"/>
</g>
<defs>
<clipPath id="clip0">
<rect width="35" height="35" fill="white" transform="translate(0.387939 0.74469)"/>
</clipPath>
</defs>
</svg>
