<svg width="51" height="51" viewBox="0 0 51 51" fill="none" xmlns="http://www.w3.org/2000/svg">
<g clip-path="url(#clip0)">
<path d="M25.3103 0.59729C11.5031 0.59729 0.310303 11.79 0.310303 25.5972C0.310303 39.4043 11.5031 50.5971 25.3103 50.5971C39.1174 50.5971 50.3103 39.4043 50.3103 25.5972C50.3102 11.79 39.1172 0.59729 25.3103 0.59729ZM18.6402 37.6835H13.1512V19.9502H18.6402V37.6835ZM15.8696 17.6278C14.0769 17.6278 12.6237 16.1627 12.6237 14.3557C12.6237 12.5485 14.0771 11.0835 15.8696 11.0835C17.662 11.0835 19.1153 12.5485 19.1153 14.3557C19.1154 16.1628 17.6621 17.6278 15.8696 17.6278V17.6278ZM39.2102 37.6835H33.7478V28.375C33.7478 25.8219 32.7781 24.3968 30.7593 24.3968C28.5622 24.3968 27.4144 25.881 27.4144 28.375V37.6835H22.1498V19.9502H27.4144V22.3385C27.4144 22.3385 28.998 19.4092 32.7582 19.4092C36.5185 19.4092 39.2103 21.7052 39.2103 26.455L39.2102 37.6835V37.6835Z" fill="url(#paint0_linear)"/>
</g>
<defs>
<linearGradient id="paint0_linear" x1="7.63261" y1="7.91958" x2="42.9878" y2="43.2749" gradientUnits="userSpaceOnUse">
<stop stop-color="#2489BE"/>
<stop offset="1" stop-color="#0575B3"/>
</linearGradient>
<clipPath id="clip0">
<rect width="50" height="50" fill="white" transform="translate(0.310303 0.597229)"/>
</clipPath>
</defs>
</svg>
