<svg width="17" height="17" viewBox="0 0 17 17" fill="none" xmlns="http://www.w3.org/2000/svg">
<g clip-path="url(#clip0)">
<path d="M14.0193 14.3794H11.6499V10.6667C11.6499 9.78136 11.6319 8.64202 10.4153 8.64202C9.17994 8.64202 8.99127 9.60536 8.99127 10.6014V14.3794H6.62194V6.74469H8.89794V7.78536H8.92861C9.24661 7.18536 10.0199 6.55202 11.1753 6.55202C13.5759 6.55202 14.0199 8.13202 14.0199 10.1887V14.3794H14.0193ZM3.94594 5.70002C3.18327 5.70002 2.57061 5.08269 2.57061 4.32336C2.57061 3.56469 3.18394 2.94802 3.94594 2.94802C4.70594 2.94802 5.32194 3.56469 5.32194 4.32336C5.32194 5.08269 4.70527 5.70002 3.94594 5.70002ZM5.13394 14.3794H2.75794V6.74469H5.13394V14.3794ZM15.2046 0.74469H1.56861C0.915939 0.74469 0.387939 1.26069 0.387939 1.89736V15.592C0.387939 16.2294 0.915939 16.7447 1.56861 16.7447H15.2026C15.8546 16.7447 16.3879 16.2294 16.3879 15.592V1.89736C16.3879 1.26069 15.8546 0.74469 15.2026 0.74469H15.2046Z" fill="#0177B5"/>
</g>
<defs>
<clipPath id="clip0">
<rect width="16" height="16" fill="white" transform="translate(0.387939 0.74469)"/>
</clipPath>
</defs>
</svg>
